<!-- Generated by IcoMoon.io -->
<svg version="1.1" xmlns="http://www.w3.org/2000/svg" width="48" height="32" viewBox="0 0 48 32">
<title>eye</title>
<path d="M24 9.455c-3.611 0-6.545 2.934-6.545 6.545s2.934 6.545 6.545 6.545 6.545-2.934 6.545-6.545-2.935-6.545-6.545-6.545z"></path>
<path d="M24-0.364c-10.909 0-20.225 6.785-24 16.364 3.775 9.578 13.091 16.364 24 16.364 10.92 0 20.225-6.785 24-16.364-3.775-9.578-13.080-16.364-24-16.364zM24 26.909c-6.022 0-10.909-4.887-10.909-10.909s4.887-10.909 10.909-10.909 10.909 4.887 10.909 10.909-4.887 10.909-10.909 10.909z"></path>
</svg>
