<svg xmlns="http://www.w3.org/2000/svg" width="119" height="108" viewBox="0 0 119 108">
    <g fill="none">
        <path fill="#FF1D53" d="M2.143 107.997h114.726c.722.034 1.408-.316 1.802-.92.394-.605.437-1.373.113-2.017L61.421 1.086C61.02.413 60.291 0 59.506 0c-.786 0-1.514.413-1.916 1.086L.227 105.038c-.335.647-.297 1.422.099 2.033.395.612 1.088.965 1.817.926z"/>
        <path fill="#FFF" d="M58.598 97C73.444 97 85.48 85.136 85.48 70.5S73.444 44 58.598 44C43.75 44 31.715 55.864 31.715 70.5S43.751 97 58.598 97"/>
        <path fill="#6328FF" d="M75.449 61.11c-2.698.005-5.184-1.47-6.487-3.849-1.303-2.379-1.215-5.284.229-7.579-6.759-2.086-14.06.73-17.703 6.83-3.643 6.1-2.692 13.915 2.306 18.948 4.999 5.033 12.76 5.991 18.817 2.323 6.058-3.669 8.855-11.02 6.783-17.826-1.18.754-2.548 1.154-3.945 1.154z"/>
    </g>
</svg>
