<svg xmlns="http://www.w3.org/2000/svg" xmlns:xlink="http://www.w3.org/1999/xlink" width="97" height="95" viewBox="0 0 97 95">
    <defs>
        <path id="prefix__a" d="M0.117 0.064L8.502 0.064 8.502 7.278 0.117 7.278z"/>
        <path id="prefix__c" d="M0.544 0.158L5.305 0.158 5.305 7.559 0.544 7.559z"/>
    </defs>
    <g fill="none" fill-rule="evenodd">
        <path fill="#B1BBF8" d="M62 34L57.373 59.483 51.997 60.187 45.647 44.924 43.49 61.298 38.114 62 27 38.574 33.111 37.775 39.736 53.988 41.665 36.657 47.336 35.917 53.717 52.161 55.889 34.798zM68.104 50.046c2.316-.302 4.28 1.196 4.584 3.495.306 2.3-1.201 4.251-3.517 4.555-2.315.302-4.28-1.196-4.584-3.496-.305-2.3 1.202-4.252 3.517-4.554M37.818 88.214c.374.401.618.895.733 1.481.116.587.069 1.229-.14 1.924-.209.695-.524 1.257-.944 1.684-.42.428-.898.708-1.432.839-.534.131-1.072.117-1.614-.044-.535-.158-.99-.44-1.365-.84-.373-.401-.618-.894-.733-1.481-.115-.588-.068-1.229.14-1.924.21-.695.525-1.257.945-1.685.42-.428.898-.707 1.431-.839.535-.131 1.07-.117 1.605.042.543.161 1 .442 1.374.843m-2.768-.11c-.38.097-.724.315-1.03.65-.308.336-.545.785-.715 1.349-.17.564-.218 1.07-.147 1.516.071.448.239.816.502 1.106.263.29.593.494.99.612s.786.126 1.165.028c.38-.098.724-.315 1.03-.65.307-.335.546-.784.715-1.35.17-.562.219-1.069.148-1.516-.073-.448-.24-.816-.503-1.105-.263-.29-.593-.494-.99-.612s-.785-.127-1.165-.029M23.346 89.183L19.916 86.958 20.354 86.292 23.063 88.051 24.223 86.286 22.009 84.85 22.446 84.185 24.661 85.621 26.404 82.971 27.122 83.437zM13.386 81.287L10.661 78.248 11.258 77.722 13.411 80.123 14.996 78.72 13.237 76.757 13.833 76.229 15.593 78.191 17.972 76.083 18.543 76.72zM5.961 71.194L5.555 70.443 11.64 67.194 12.047 67.946zM8.105 59.276c-.15.52-.453.979-.906 1.379-.453.401-1.048.688-1.784.858-.737.173-1.398.178-1.983.02-.585-.16-1.06-.439-1.428-.838-.367-.398-.615-.864-.74-1.399-.156-.661-.114-1.259.125-1.792.24-.531.646-.955 1.22-1.27l.397.735c-.41.236-.702.533-.875.892-.172.36-.201.777-.09 1.254.099.415.288.762.57 1.042.283.28.644.466 1.085.557.44.093.947.073 1.516-.06.57-.133 1.032-.337 1.386-.613.354-.277.594-.604.722-.98.127-.375.142-.77.045-1.183-.112-.477-.326-.838-.64-1.085-.315-.246-.709-.384-1.183-.414l.027-.832c.656.028 1.21.227 1.662.599.453.372.756.888.912 1.55.127.536.114 1.061-.038 1.58M0 48.067L6.908 48.131 6.916 47.279.009 47.214zM1.443 36.496l.203-.777 7.3-.618-.226.863-1.955.144-.66 2.525 1.637 1.07-.23.873-6.07-4.08zm4.485-.34l-3.266.24 2.734 1.79.532-2.03zM5.682 25.518L6.114 24.781 11.392 27.836 12.966 25.152 13.658 25.552 11.65 28.974zM14.913 19.058c-.162.01-.307-.042-.434-.156-.132-.118-.204-.257-.212-.42-.009-.16.043-.304.157-.431.118-.131.258-.202.421-.212.163-.008.31.047.442.165.127.112.195.25.205.412.008.161-.046.308-.164.439-.114.127-.253.195-.415.203M20.514 8.913l.666-.457 5.93 4.276-.74.506-1.573-1.16-2.162 1.48.535 1.873-.749.513-1.907-7.031zm3.618 2.655l-2.629-1.939.89 3.13 1.739-1.191zM30.044 3.564L30.912 3.3 33.918 8.23 33.919 3.144 34.636 2.926 37.495 7.142 37.215 1.383 38.074 1.121 38.313 8.226 37.483 8.479 34.666 4.332 34.689 9.329 33.851 9.584z"/>
        <g transform="translate(46.598)">
            <mask id="prefix__b" fill="#fff">
                <use xlink:href="#prefix__a"/>
            </mask>
            <path fill="#B1BBF8" d="M0.117 0.063L1.023 0.114 2.128 5.772 3.9 1 4.649 1.042 5.864 5.98 7.606 0.479 8.502 0.528 6.256 7.278 5.388 7.23 4.187 2.371 2.472 7.069 1.595 7.02z" mask="url(#prefix__b)"/>
        </g>
        <path fill="#B1BBF8" d="M63.587 2.537L64.419 2.897 63.475 8.585 66.806 4.722 67.493 5.019 66.904 10.07 70.462 5.514 71.286 5.87 66.817 11.422 66.021 11.077 66.597 6.107 63.342 9.918 62.538 9.569zM79.544 11.722l.611.527-2.69 6.77-.677-.585.74-1.804-1.982-1.709-1.694.98-.686-.592 6.378-3.587zm-1.687 4.142l1.234-3.012-2.827 1.636 1.593 1.376zM87.599 20.408l1.252 1.939c.346.533.48 1.032.405 1.496-.076.463-.358.85-.845 1.162-.41.261-.808.367-1.195.319-.387-.048-.744-.241-1.07-.576l-1.68 3.517-.517-.8 1.643-3.483-.585-.908-2.758 1.759-.463-.719 5.813-3.706zm-1.147 3.434c.21.324.437.526.682.602.245.077.514.022.808-.166.57-.363.644-.872.22-1.527l-.771-1.196-1.712 1.09.773 1.197zM93.857 32.542l.535 1.837c.163.559.181 1.105.055 1.638-.126.533-.398 1.006-.819 1.419-.421.414-.98.72-1.674.92-.696.2-1.332.236-1.91.11-.577-.128-1.063-.383-1.455-.766-.393-.385-.67-.856-.833-1.415l-.535-1.837 6.636-1.906zm-5.369 3.4c.12.415.318.77.594 1.065.272.296.633.495 1.077.599.444.104.96.07 1.548-.098.588-.168 1.042-.415 1.362-.738.32-.323.517-.682.59-1.078.074-.395.05-.8-.07-1.214l-.261-.895-5.1 1.464.26.895zM89.683 46.933c.166-.319.392-.58.68-.784.288-.205.603-.337.943-.397l.448.703c-1.016.247-1.522.757-1.518 1.528.003.334.105.604.307.812.201.207.493.311.874.31.249-.003.463-.07.639-.201.177-.132.323-.296.44-.492.117-.198.26-.477.428-.837.215-.446.465-.798.756-1.058.292-.26.663-.391 1.116-.394.323-.003.612.07.869.22.257.149.458.354.605.614.145.26.22.554.222.881.003.452-.092.817-.283 1.1-.193.282-.47.502-.829.662l-.447-.693c.511-.213.764-.567.761-1.064-.002-.268-.085-.483-.249-.646-.166-.162-.363-.242-.593-.242-.232.001-.428.066-.592.19-.162.126-.3.282-.409.469-.11.187-.237.44-.38.762-.227.504-.491.895-.795 1.171-.305.277-.709.417-1.215.419-.401.003-.752-.082-1.054-.254-.305-.17-.54-.408-.71-.712-.169-.302-.256-.643-.258-1.022-.003-.38.078-.728.244-1.045M91.526 57.508c.14-.086.29-.11.458-.072.173.04.302.129.39.265.085.137.109.288.071.455-.04.171-.128.3-.265.386-.14.087-.295.11-.468.069-.166-.037-.293-.125-.38-.262-.086-.137-.11-.292-.07-.464.038-.165.126-.29.264-.377M86.552 64.541c.45-.167.922-.168 1.42-.004l-.206.858c-.362-.113-.674-.127-.938-.042-.262.084-.466.274-.608.569-.153.318-.178.62-.075.904.104.285.363.526.78.724l4.368 2.08-.366.76-4.29-2.042c-.665-.315-1.085-.723-1.261-1.22-.176-.497-.135-1.013.125-1.55.252-.524.602-.87 1.051-1.037M80.095 74.532c.38-.155.777-.192 1.192-.111.415.082.82.295 1.214.642l3.416 3-.569.64-3.453-3.035c-.354-.312-.73-.463-1.125-.45-.396.008-.763.205-1.104.587-.34.381-.49.767-.452 1.16.038.39.235.742.59 1.054l3.452 3.033-.569.64-3.415-3.002c-.394-.346-.657-.72-.786-1.123-.13-.401-.14-.799-.032-1.192.108-.393.313-.759.614-1.097.304-.342.647-.592 1.027-.746M75.533 87.653l-1.97 1.215c-.542.336-1.046.46-1.511.379-.464-.082-.851-.366-1.157-.855-.256-.411-.358-.808-.304-1.192.054-.384.253-.736.595-1.055l-3.514-1.721.813-.5 3.48 1.683.923-.569-1.73-2.764.73-.452 3.645 5.83zm-3.44-1.19c-.328.203-.534.425-.616.668-.08.242-.028.51.156.806.357.57.869.651 1.533.242l1.217-.75-1.073-1.717-1.216.751z"/>
        <g transform="translate(58.96 87.185)">
            <mask id="prefix__d" fill="#fff">
                <use xlink:href="#prefix__c"/>
            </mask>
            <path fill="#B1BBF8" d="M2.224 2.998L5.305 6.164 4.377 6.436 2.047 3.928 1.462 7.291 0.544 7.559 1.401 3.24 0.558 0.4 1.381 0.158z" mask="url(#prefix__d)"/>
        </g>
        <path fill="#B1BBF8" d="M51.554 92.037c.122.107.189.245.2.413.014.177-.036.326-.141.448-.109.122-.247.188-.418.2-.177.012-.327-.036-.45-.142-.122-.107-.19-.248-.201-.424-.013-.17.037-.315.143-.437.107-.122.25-.189.426-.2.171-.012.318.036.44.142"/>
    </g>
</svg>
