<svg xmlns="http://www.w3.org/2000/svg" xmlns:xlink="http://www.w3.org/1999/xlink" width="375" height="250" viewBox="0 0 375 250">
    <defs>
        <path id="prefix__a" d="M0.855 0.45L25.392 0.45 25.392 35.449 0.855 35.449z"/>
        <path id="prefix__c" d="M0 241L52 241 52 300 0 300z"/>
    </defs>
    <g fill="none" fill-rule="evenodd" transform="translate(-38 -12)">
        <g>
            <path stroke="#2A2A2A" d="M328 26c-14.36 0-26 11.631-26 25.978v32.044C302 98.369 290.36 110 276 110s-26-11.63-26-25.978M120 188c14.36 0 26-11.655 26-26.033v-25.934C146 121.655 157.64 110 172 110M198 84c0 14.36-11.64 26-26 26M198 85c0-14.36 11.64-26 26-26s26 11.64 26 26M354 0c0 14.36-11.64 26-26 26" transform="translate(63)"/>
            <path fill="#2A2A2A" d="M174 110c0 1.105-.896 2-2 2-1.105 0-2-.895-2-2s.895-2 2-2c1.104 0 2 .895 2 2" transform="translate(63)"/>
            <path fill="#1A1A1A" d="M229 59c0 2.762-2.24 5-5 5-2.762 0-5-2.238-5-5s2.238-5 5-5c2.76 0 5 2.238 5 5" transform="translate(63)"/>
            <path fill="#2A2A2A" d="M278 111c0 1.105-.895 2-2 2-1.104 0-2-.895-2-2s.896-2 2-2c1.105 0 2 .895 2 2M330 26c0 1.105-.896 2-2 2-1.105 0-2-.895-2-2s.895-2 2-2c1.104 0 2 .895 2 2" transform="translate(63)"/>
            <path stroke="#2A2A2A" d="M28 214c0 14.36-11.64 26-26 26M28 215c0-14.36 11.64-26 26-26" transform="translate(63)"/>
            <path fill="#2A2A2A" d="M4 240c0 1.105-.895 2-2 2s-2-.895-2-2 .895-2 2-2 2 .895 2 2M122 188c0 1.105-.895 2-2 2s-2-.895-2-2 .895-2 2-2 2 .895 2 2M56 188c0 1.105-.895 2-2 2s-2-.895-2-2 .895-2 2-2 2 .895 2 2" transform="translate(63)"/>
            <path stroke="#2A2A2A" d="M54 188.5L120 188.5" transform="translate(63)"/>
        </g>
        <path fill="#1F1F1F" d="M76 257H375V258H76z"/>
        <g>
            <path fill="#1A1A1A" d="M50.165 171.93c.359-.885 5.49-18.93 5.49-18.93h24.51l-10.542 27" transform="translate(106 44)"/>
            <path fill="#1A1A1A" d="M10.165 190.908c11.636 53.011 80.165-4.675 80.165-4.675L149.27 214l2.896-.02L91.9 169l-81.735 17.912v3.996z" transform="translate(106 44)"/>
            <path fill="#F6F0EF" d="M16.45 128.724C2.235 147.132.164 193 .164 193s29.336-4.717 39.977-6.827c11.536-2.286 7.419-27.281 6.832-34.817-.172-2.198-.673-16.938-2.845-21.435-1.462-3.03-3.987-5.112-6.969-6.23-2.213-.831-4.949-.68-7.243-.68-3.817 0-9.228.223-13.468 5.713" transform="translate(106 44)"/>
            <path stroke="#2A2A2A" stroke-linecap="round" d="M16.45 128.724C2.235 147.132.164 193 .164 193s29.336-4.717 39.977-6.827c11.536-2.286 7.419-27.281 6.832-34.817-.172-2.198-.673-16.938-2.845-21.435-1.462-3.03-3.987-5.112-6.969-6.23-2.213-.831-4.949-.68-7.243-.68-3.817 0-9.228.223-13.468 5.713z" transform="translate(106 44)"/>
            <g>
                <path fill="#F6F0EF" d="M19.004 25.201c.887 1.85 21.769 6.34 23.013 6.419 1.245.078-4.893 1.736-4.893 1.736-14.571 5.522-30.588 7.979-32.658 5.889C2.396 37.154.74.935.762.039" transform="translate(106 44) translate(29.551 142)"/>
                <path stroke="#2A2A2A" stroke-linecap="round" d="M19.004 25.201c.887 1.85 21.769 6.34 23.013 6.419 1.245.078-4.893 1.736-4.893 1.736-14.571 5.522-30.588 7.979-32.658 5.889C2.396 37.154.74.935.762.039" transform="translate(106 44) translate(29.551 142)"/>
            </g>
            <g>
                <path fill="#FEFEFE" d="M1.04.508S.21 12.327.198 12.895" transform="translate(106 44) translate(33.551 111)"/>
                <path stroke="#2A2A2A" stroke-linecap="round" d="M1.04.508S.21 12.327.198 12.895" transform="translate(106 44) translate(33.551 111)"/>
            </g>
            <g>
                <path fill="#FEFEFE" d="M.098 15.895C.168 15.325 2.002 3.31 2.241.173" transform="translate(106 44) translate(27.551 108)"/>
                <path stroke="#2A2A2A" stroke-linecap="round" d="M.098 15.895C.168 15.325 2.002 3.31 2.241.173" transform="translate(106 44) translate(27.551 108)"/>
            </g>
            <g>
                <path fill="#F6F0EF" d="M1.493.365C.045-1.048 6.15 5.088 6.036 5.895c-.113.806-1.25 1.382-1.25 1.382s.802 2.305 1.253 3.342c.451 1.037-.003 1.843-1.706 2.419-1.704.576-3.636.876-3.636.876" transform="translate(106 44) translate(34.551 97)"/>
                <path stroke="#2A2A2A" stroke-linecap="round" d="M1.493.365C.045-1.048 6.15 5.088 6.036 5.895c-.113.806-1.25 1.382-1.25 1.382s.802 2.305 1.253 3.342c.451 1.037-.003 1.843-1.706 2.419-1.704.576-3.636.876-3.636.876" transform="translate(106 44) translate(34.551 97)"/>
            </g>
            <path fill="#1A1A1A" d="M27.238 84c-3.078 1.44-8.207 2.057-9.029 7.202-.82 5.144-5.95 8.437-3.282 11.318 2.667 2.881 11.9 9.054 13.337 8.437 1.436-.618 3.078-2.47 1.847-3.292-1.231-.824-3.283-2.059-2.873-3.705.41-1.646 1.687-3.086 3.305-2.263l1.62.823s4.72-2.47 4.72-6.174c0-3.703 1.846-12.346-3.9-12.346h-5.745z" transform="translate(106 44)"/>
            <path stroke="#1A1A1A" d="M27.238 84c-3.078 1.44-8.207 2.057-9.029 7.202-.82 5.144-5.95 8.437-3.282 11.318 2.667 2.881 11.9 9.054 13.337 8.437 1.436-.618 3.078-2.47 1.847-3.292-1.231-.824-3.283-2.059-2.873-3.705.41-1.646 1.687-3.086 3.305-2.263l1.62.823s4.72-2.47 4.72-6.174c0-3.703 1.846-12.346-3.9-12.346h-5.745z" transform="translate(106 44)"/>
            <path fill="#1A1A1A" d="M30.06 70.729c3.915 4.305 2.211 12.17-3.807 17.566-6.017 5.397-14.069 6.281-17.984 1.976-3.914-4.305-2.21-12.17 3.807-17.566 6.018-5.396 14.07-6.281 17.984-1.976" transform="translate(106 44)"/>
            <path stroke="#151515" d="M30.06 70.729c3.915 4.305 2.211 12.17-3.807 17.566-6.017 5.397-14.069 6.281-17.984 1.976-3.914-4.305-2.21-12.17 3.807-17.566 6.018-5.396 14.07-6.281 17.984-1.976z" transform="translate(106 44)"/>
            <path fill="#1A1A1A" d="M241.165 49c.733-.01 15.367 15.822 18.809 21.051 3.442 5.23-1.69 9.641-1.488 13.887.202 4.246-10.571 20.062-10.571 20.062l-6.75-55z" transform="translate(106 44)"/>
            <path stroke="#242425" stroke-linecap="round" d="M241.165 49c.733-.01 15.367 15.822 18.809 21.051 3.442 5.23-1.69 9.641-1.488 13.887.202 4.246-10.571 20.062-10.571 20.062l-6.75-55z" transform="translate(106 44)"/>
            <path fill="#F6F0EF" d="M234.943 68L268.165 79.171 260.387 102 227.165 90.83z" transform="translate(106 44)"/>
            <path stroke="#2A2A2A" stroke-linecap="round" d="M234.943 68L268.165 79.171 260.387 102 227.165 90.83z" transform="translate(106 44)"/>
            <path fill="#242425" d="M250.165 104.258L241.86 151.966 244.97 213.613 242.135 214 219.165 148.038 231.039 103z" transform="translate(106 44)"/>
            <path fill="#F6F0EF" d="M208.937 213.702c-.01-.777 10.839-60.034 10.839-60.034L250.165 105s-41.894 2.268-43.474.993c-.72-.58-2.367 16.614-2.517 47.91-.179 37.412 2.339 60.097 2.339 60.097l2.424-.298z" transform="translate(106 44)"/>
            <path stroke="#2A2A2A" stroke-linecap="round" d="M208.937 213.702c-.01-.777 10.839-60.034 10.839-60.034L250.165 105s-41.894 2.268-43.474.993c-.72-.58-2.367 16.614-2.517 47.91-.179 37.412 2.339 60.097 2.339 60.097l2.424-.298z" transform="translate(106 44)"/>
            <path fill="#1A1A1A" d="M223.882 44.519c1.479-.26 2.217-.22 2.861-.183 2.58.15 9.192.011 11.29.849 15.846 6.33 16.625 75.217 15.984 80.815 0 0-44.116-.32-55.732-10.127l5.2-34.256s-8.423 6.796-15.583 8.582c-5.963 1.487-25.719-51.303-25.719-51.303s-.265-.596 1.218-.895c1.138-.23 24.236 32.73 24.236 32.73s17.714-18.45 21.43-21.385c7.286-5.754 13.23-4.55 14.815-4.827" transform="translate(106 44)"/>
            <g>
                <path fill="#F6F0EF" d="M4.73 13.333c-.33-.175-.151-.092-1.31-.382-1.158-.291-2.29-.598-2.455-.736-.863-.727.561-4.862.798-4.534C2 8.01.16 6.632.16 6.632S5.432-1.428 8.25.602c2.82 2.029 7.326 6.154 7.143 7.075-.183.922-1.247 3.546-2.329 3.926-1.081.38-2.696 2.393-2.645 2.327" transform="translate(106 44) translate(219.551 20)"/>
                <path stroke="#2A2A2A" stroke-linecap="round" d="M4.73 13.333c-.33-.175-.151-.092-1.31-.382-1.158-.291-2.29-.598-2.455-.736-.863-.727.561-4.862.798-4.534C2 8.01.16 6.632.16 6.632S5.432-1.428 8.25.602c2.82 2.029 7.326 6.154 7.143 7.075-.183.922-1.247 3.546-2.329 3.926-1.081.38-2.696 2.393-2.645 2.327" transform="translate(106 44) translate(219.551 20)"/>
            </g>
            <g transform="translate(106 44) translate(222.551)">
                <mask id="prefix__b" fill="#fff">
                    <use xlink:href="#prefix__a"/>
                </mask>
                <path fill="#1A1A1A" d="M4.857 27.165c-.986.337-3.693-3.899-3.345-5.763 0 0-1.268-3.951-.28-7.594C4.346 2.344 10.58.32 10.757.456c.176.135-4.766 3.801 4.665 7.761 1.992.837 7.61 3.214 9.01 7.618 4.75 14.945-9.304 15.198-16.329 19.61 0 0-1.674.138-2.291-1.243-.616-1.38-.266-2.433.628-2.827 1.413-.622 3.063-1.837 3.185-3.033.122-1.196-.086-2.779-4.768-1.177" mask="url(#prefix__b)"/>
            </g>
            <g>
                <path fill="#F6F0EF" d="M.365.49s-.04 9.187-.322 9.64c-.282.452 8.087 2.876 7.11-.093-.658-1.996-1.504-8.963-1.504-8.963" transform="translate(106 44) translate(224.551 33)"/>
                <path stroke="#2A2A2A" stroke-linecap="round" d="M.365.49s-.04 9.187-.322 9.64c-.282.452 8.087 2.876 7.11-.093-.658-1.996-1.504-8.963-1.504-8.963" transform="translate(106 44) translate(224.551 33)"/>
            </g>
        </g>
        <path stroke="#2A2A2A" d="M11 300c14.36 0 26-11.62 26-25.954v-7.092C37 252.62 48.64 241 63 241"/>
    </g>
</svg>
