<svg xmlns="http://www.w3.org/2000/svg" width="72" height="120" viewBox="0 0 72 120">
    <g fill="#1F1F1F" fill-rule="evenodd">
        <path d="M35.444 29c7.18 0 13 5.82 13 13s-5.82 13-13 13-13-5.82-13-13 5.82-13 13-13M35.444 98c-4.418 0-8 3.582-8 8s8 14 8 14 8-9.582 8-14c0-4.418-3.582-8-8-8"/>
        <path d="M55.933 85.416c.214-.223.428-.445.637-.677l-.162.274-.475.403zm-9.274 5.093C45.272 91 38.385 91 35.444 91c-2.94 0-9.828 0-11.215-.491C10.015 85.474 2.444 62.586 2.444 48c0-8.588 4.433-20.263 11.57-30.469C21.144 7.334 29.355 1 35.444 1c6.09 0 14.3 6.334 21.43 16.531C64.011 27.737 68.444 39.412 68.444 48c0 14.586-7.57 37.474-21.785 42.509zM70.633 89l-5.226-19.108-.554.931c3.025-7.612 4.591-15.966 4.591-22.823 0-18.778-20-48-34-48s-34 29.222-34 48c0 6.583 1.443 14.545 4.235 21.906l-.009-.014L.444 89s-1 4 0 5 2 2 6 1 13.634-5.383 13.634-5.383l-.012-.011c1.22.749 2.496 1.372 3.83 1.845C25.443 92 32.037 92 35.443 92c3.406 0 10 0 11.55-.549 1.638-.58 3.187-1.395 4.655-2.387l-.65.553S60.633 94 64.633 95s5 0 6-1 0-5 0-5z"/>
    </g>
</svg>
