<svg xmlns="http://www.w3.org/2000/svg" width="100" height="112" viewBox="0 0 100 112">
    <g fill="#1E1F1E">
        <path d="M26 86.591v15.439c0 1.26-1.021 2.28-2.28 2.28H2.28c-1.259 0-2.28-1.02-2.28-2.28V86.59c0-1.26 1.021-2.28 2.28-2.28h21.44c1.259 0 2.28 1.02 2.28 2.28zM0 109.087H20V111.087H0zM0 107.087H26V109.087H0zM60.72 85.31c.705 0 1.28.575 1.28 1.281v15.439c0 .706-.575 1.28-1.28 1.28H39.28c-.705 0-1.28-.574-1.28-1.28V86.59c0-.706.575-1.28 1.28-1.28h21.44m0-1H39.28c-1.259 0-2.28 1.02-2.28 2.28v15.439c0 1.26 1.021 2.28 2.28 2.28h21.44c1.259 0 2.28-1.02 2.28-2.28V86.59c0-1.26-1.021-2.28-2.28-2.28zM37 109.087H57V111.087H37zM37 107.087H63V109.087H37zM84 1c8.271 0 15 6.729 15 15v44c0 8.271-6.729 15-15 15H16C7.729 75 1 68.271 1 60V16C1 7.729 7.729 1 16 1h68m0-1H16C7.164 0 0 7.164 0 16v44c0 8.837 7.164 16 16 16h68c8.836 0 16-7.163 16-16V16c0-8.836-7.164-16-16-16z"/>
        <g>
            <path d="M39.136 -20.155H40.136V70.654H39.136z" transform="translate(10 13) rotate(-59.265 39.636 25.25)"/>
            <path d="M-4.551 23.981H85.731V24.981H-4.551z" transform="translate(10 13) rotate(-30.772 40.59 24.481)"/>
        </g>
        <path d="M49.379 83.289H50.379V105.006H49.379z" transform="rotate(-54.674 49.88 94.147)"/>
        <path d="M39.021 93.647H60.738V94.647H39.021z" transform="rotate(-35.326 49.88 94.147)"/>
        <path d="M97.72 85.31c.705 0 1.28.575 1.28 1.281v15.439c0 .706-.575 1.28-1.28 1.28H76.28c-.705 0-1.28-.574-1.28-1.28V86.59c0-.706.575-1.28 1.28-1.28h21.44m0-1H76.28c-1.259 0-2.28 1.02-2.28 2.28v15.439c0 1.26 1.021 2.28 2.28 2.28h21.44c1.259 0 2.28-1.02 2.28-2.28V86.59c0-1.26-1.021-2.28-2.28-2.28zM74 109.087H94V111.087H74zM74 107.087H100V109.087H74z"/>
        <path d="M86.379 83.289H87.379V105.006H86.379z" transform="rotate(-54.674 86.88 94.147)"/>
        <path d="M76.021 93.647H97.738V94.647H76.021z" transform="rotate(-35.326 86.88 94.147)"/>
    </g>
</svg>
