<svg xmlns="http://www.w3.org/2000/svg" width="122" height="115" viewBox="0 0 122 115">
    <g fill="none" fill-rule="evenodd">
        <path stroke="#1F1F1F" d="M105.57.5H60.43c-4.399 0-8.382 1.776-11.265 4.647-2.882 2.871-4.665 6.837-4.665 11.218v71.268c0 4.382 1.783 8.348 4.665 11.22 2.883 2.871 6.866 4.647 11.266 4.647h45.138c4.4 0 8.383-1.776 11.266-4.648 2.882-2.871 4.665-6.837 4.665-11.219V16.365c0-4.38-1.783-8.347-4.665-11.218C113.952 2.276 109.969.5 105.569.5z"/>
        <path stroke="#020303" d="M89.57.5H44.43c-4.399 0-8.382 1.776-11.265 4.648-2.882 2.87-4.665 6.837-4.665 11.218v71.267c0 4.382 1.783 8.348 4.665 11.22 2.883 2.871 6.866 4.647 11.266 4.647h45.138c4.4 0 8.383-1.776 11.266-4.648 2.882-2.87 4.665-6.837 4.665-11.219V16.366c0-4.381-1.783-8.347-4.665-11.218C97.952 2.276 93.969.5 89.569.5z"/>
        <path fill="#FFF" stroke="#1F1F1F" d="M73.57.5H28.43c-4.399 0-8.382 1.776-11.265 4.647-2.882 2.871-4.665 6.837-4.665 11.218v71.268c0 4.382 1.783 8.348 4.665 11.22 2.883 2.871 6.866 4.647 11.266 4.647h45.138c4.4 0 8.383-1.776 11.266-4.648 2.882-2.871 4.665-6.837 4.665-11.219V16.365c0-4.38-1.783-8.347-4.665-11.218C81.952 2.276 77.969.5 73.569.5z"/>
        <path fill="#1F1F1F" d="M34.142 76.858c7.81 7.811 7.81 20.474 0 28.285-7.81 7.81-20.474 7.81-28.285 0-7.81-7.811-7.81-20.474 0-28.285 7.811-7.81 20.474-7.81 28.285 0"/>
        <path fill="#1F1F1F" d="M42.463 113.675l-.11.11c-.423.424-1.115.424-1.538 0l-7.718-7.718c-.423-.422-.423-1.114 0-1.537l.11-.11c.424-.423 1.116-.423 1.539 0l7.717 7.717c.423.423.423 1.116 0 1.538"/>
        <path fill="#FEFEFE" d="M56.172 20.25L26.948 20.25"/>
        <path fill="#1F1F1F" d="M29 19H47V29H29zM55 39H73V49H55zM53 21H73V23H53zM29 41H49V43H29zM40 61H62V62H40z"/>
        <rect width="22" height="6" x="40" y="71" fill="#1F1F1F" rx="3"/>
        <path fill="#1F1F1F" d="M40 66H62V67H40zM53 23H64V25H53zM29 43H40V45H29z"/>
    </g>
</svg>
