<svg xmlns="http://www.w3.org/2000/svg" xmlns:xlink="http://www.w3.org/1999/xlink" width="295" height="181" viewBox="0 0 295 181">
    <defs>
        <path id="prefix__a" d="M0.84 0.371L134.931 0.371 134.931 77 0.84 77z"/>
    </defs>
    <g fill="none" fill-rule="evenodd">
        <path fill="#1F1F1F" d="M146.965 29c7.18 0 13 5.82 13 13s-5.82 13-13 13-13-5.82-13-13 5.82-13 13-13M146.965 98c-4.418 0-8 3.582-8 8s8 14 8 14 8-9.582 8-14c0-4.418-3.582-8-8-8"/>
        <path fill="#1F1F1F" d="M167.455 85.416c.214-.223.428-.445.637-.677l-.162.274-.475.403zm-9.274 5.093c-1.387.491-8.274.491-11.215.491-2.941 0-9.828 0-11.215-.491-14.214-5.035-21.785-27.923-21.785-42.509 0-8.588 4.433-20.263 11.57-30.469C132.666 7.334 140.876 1 146.966 1c6.089 0 14.3 6.334 21.43 16.531 7.137 10.206 11.57 21.881 11.57 30.469 0 14.586-7.571 37.474-21.785 42.509zM182.155 89l-5.226-19.108-.554.931c3.025-7.612 4.59-15.966 4.59-22.823 0-18.778-20-48-34-48s-34 29.222-34 48c0 6.583 1.444 14.545 4.236 21.906l-.01-.014L111.967 89s-1 4 0 5 2 2 6 1 13.634-5.383 13.634-5.383l-.012-.011c1.22.749 2.496 1.372 3.829 1.845 1.549.549 8.143.549 11.549.549 3.406 0 10 0 11.549-.549 1.639-.58 3.188-1.395 4.656-2.387l-.65.553S172.155 94 176.155 95s5 0 6-1 0-5 0-5z"/>
        <g transform="translate(160 103.44)">
            <mask id="prefix__b" fill="#fff">
                <use xlink:href="#prefix__a"/>
            </mask>
            <path fill="#1F1F1F" d="M72.25.37C53.1.37 37.236 14.445 34.437 32.81c-.148-.001-.291-.02-.44-.02-12.208 0-22.104 9.896-22.104 22.104C5.788 54.894.84 59.844.84 65.947c0 5.694 4.306 10.378 9.839 10.984.399.043 101.68.069 102.147.069 12.209 0 22.106-9.897 22.106-22.106 0-12.208-9.897-22.104-22.106-22.104-.93 0-1.841.075-2.741.187C107.354 14.529 91.458.37 72.25.37m0 1c8.988 0 17.668 3.246 24.439 9.14 6.706 5.836 11.112 13.866 12.407 22.613l.142.966.97-.12c.99-.123 1.822-.18 2.618-.18 11.638 0 21.106 9.468 21.106 21.104 0 11.638-9.468 21.106-21.106 21.106-.993 0-99.768-.026-102.076-.068-5.083-.575-8.91-4.86-8.91-9.985 0-5.543 4.51-10.053 10.053-10.053h1v-1c0-11.636 9.467-21.104 21.105-21.104.056 0 .11.004.165.009.085.006.169.01.254.012l.876.018.132-.866c1.328-8.71 5.746-16.701 12.442-22.504C54.63 4.599 63.289 1.37 72.25 1.37" mask="url(#prefix__b)"/>
        </g>
        <path fill="#1F1F1F" d="M57.252 106.398c-17.457 0-32.049 12.118-35.918 28.392C9.424 135.58 0 145.464 0 157.576c0 12.627 10.236 22.864 22.864 22.864h99.67c6.313 0 11.431-5.119 11.431-11.433s-5.118-11.431-11.431-11.431c-1.07 0-2.1.157-3.08.43-1.47-8.369-8.365-14.865-16.938-15.697-.08-5.91-4.639-10.728-10.438-11.226-5.065-14.37-18.724-24.684-34.826-24.684m0 1c15.202 0 28.82 9.65 33.883 24.018l.215.607.644.056c5.356.458 9.45 4.861 9.522 10.242l.012.894.891.088c8.05.781 14.65 6.9 16.05 14.875l.19 1.089 1.063-.298c.939-.262 1.884-.394 2.812-.394 5.752 0 10.431 4.679 10.431 10.431 0 5.752-4.68 10.433-10.431 10.433h-99.67C10.808 179.44 1 169.63 1 157.576c0-11.46 8.96-21.03 20.4-21.79l.737-.048.17-.719c3.867-16.263 18.238-27.62 34.945-27.62"/>
    </g>
</svg>
