<svg xmlns="http://www.w3.org/2000/svg" width="60" height="60" viewBox="0 0 60 60">
    <g fill="none" fill-rule="evenodd">
        <circle cx="30" cy="30" r="30" fill="#FFF"/>
        <path fill="#1F1F1F" fill-rule="nonzero" d="M42.252 32.761c.19-.846.285-1.725.285-2.628 0-6.751-5.551-12.226-12.4-12.226-.721 0-1.43.063-2.123.178C26.906 17.398 25.595 17 24.19 17 20.219 17 17 20.173 17 24.09c0 1.308.356 2.532.99 3.586-.166.795-.254 1.618-.254 2.457 0 6.756 5.551 12.23 12.4 12.23.777 0 1.537-.07 2.273-.206 1.01.537 2.17.843 3.401.843 3.971 0 7.19-3.173 7.19-7.09-.004-1.133-.27-2.202-.748-3.149zm-5.757 3.217c-.57.8-1.417 1.436-2.518 1.885-1.085.445-2.391.672-3.872.672-1.782 0-3.278-.306-4.442-.919-.832-.441-1.52-1.045-2.04-1.785-.53-.748-.795-1.491-.795-2.21 0-.446.174-.836.515-1.154.34-.318.776-.473 1.294-.473.428 0 .792.123 1.093.37.285.238.53.592.729 1.05.217.497.459.914.712 1.244.242.318.594.585 1.037.791.452.211 1.058.318 1.802.318 1.025 0 1.865-.214 2.498-.64.618-.413.919-.914.919-1.527 0-.485-.159-.862-.48-1.16-.336-.31-.783-.553-1.322-.72-.566-.171-1.334-.358-2.276-.557-1.287-.27-2.38-.592-3.25-.958-.892-.37-1.608-.89-2.13-1.535-.535-.656-.8-1.483-.8-2.453 0-.923.28-1.758.843-2.473.55-.712 1.362-1.269 2.407-1.65 1.025-.374 2.253-.565 3.634-.565 1.109 0 2.083.127 2.895.378.82.25 1.508.588 2.05 1.006.547.421.95.87 1.204 1.336.257.473.388.942.388 1.395 0 .438-.17.831-.507 1.181-.34.346-.772.52-1.275.52-.459 0-.82-.106-1.069-.325-.233-.203-.475-.517-.74-.97-.309-.58-.685-1.038-1.112-1.36-.416-.31-1.117-.47-2.071-.47-.89 0-1.611.176-2.15.522-.519.334-.768.72-.768 1.173 0 .278.08.512.245.711.179.211.428.398.74.553.33.163.662.29.999.382.344.095.922.234 1.718.417 1.001.21 1.924.445 2.74.704.823.262 1.54.58 2.122.954.594.382 1.065.871 1.397 1.455.337.589.503 1.313.503 2.156.004 1.01-.289 1.928-.867 2.731z"/>
    </g>
</svg>
