<svg xmlns="http://www.w3.org/2000/svg" width="77" height="131" viewBox="0 0 77 131">
    <g fill="none">
        <path fill="#000" d="M76.471 69.862c0-1.594-.143-3.05-.93-4.437-1.719-2.911-5.083-4.298-8.161-5.546-7.588-3.12-15.175-6.17-22.835-9.22-7.587-3.05-15.103-6.1-22.62-9.29-3.793-1.594-7.516-3.189-11.238-4.922-1.646-.762-3.221-1.456-4.581-2.565-.644-.485-1.217-1.109-1.718-1.733-.501-.693-.716-1.525-1.289-2.149l-.214 13.588c-.072 2.357-.072 4.714-.072 7.002v5.13c0 .277.215.97-.143 1.11v5.337c0 .416-.072.901 0 1.317.071.347.143.486.143.832 0 .624.143 1.317.358 1.941.859 2.704 3.15 4.368 5.655 5.616 2.792 1.386 5.726 2.565 8.59 3.743 3.006 1.248 6.084 2.496 9.162 3.675 6.156 2.495 12.312 4.922 18.468 7.348 6.085 2.427 12.098 4.922 18.04 7.487 2.862 1.248 5.797 2.427 8.517 4.021 1.003.555 1.933 1.317 2.72 2.15.43.485.86 1.04 1.146 1.594.143.277.358 1.109.787 1.109.143-2.218.072-4.506.072-6.794v-6.863c0-4.506.215-9.013.143-13.519.072-1.871 0-3.882 0-5.962z"/>
        <path fill="#F48634" d="M13.154 31.27c1.964 1.815 4.7 2.792 7.227 3.769l8.209 3.35c5.472 2.234 10.945 4.537 16.348 6.77 1.333.56 2.666 1.257 4.07 1.676 1.473.488 2.665-.21 3.998-.768 2.737-1.186 5.473-2.303 8.14-3.42 2.666-1.117 5.472-2.303 8.138-3.42 1.333-.559 2.737-1.117 4.07-1.745.49-.21 1.193-.35 1.543-.768.351-.349.281-.907.281-1.396V0c-1.193.489-2.456 1.047-3.648 1.536l-33.047 14.03c-5.473 2.302-11.016 4.676-16.489 6.979-1.403.558-2.736 1.187-4.14 1.745-1.262.558-2.595.977-3.718 1.745-.912.558-1.965 1.396-2.245 2.513-.14 1.116.49 2.024 1.263 2.722zM55.727 96.402c-2.677-1.19-5.425-2.24-8.103-3.291-5.496-2.24-10.992-4.412-16.488-6.652-1.339-.56-2.677-1.05-4.016-1.61-.634-.281-1.41-.771-2.114-.841-.564-.07-1.198.35-1.691.56-2.748 1.19-5.496 2.31-8.244 3.501-2.678 1.12-5.426 2.311-8.103 3.431-1.41.56-2.748 1.12-4.157 1.751-.705.28-1.48.56-2.185.91-.422.21-.563.42-.563.84-.141 1.401 0 2.872 0 4.272v30.951c0 .35-.07.7.352.77.493.07 1.268-.49 1.691-.7 5.496-2.381 10.992-4.692 16.488-7.073 10.922-4.691 21.843-9.313 32.765-14.005 2.466-1.05 5.143-1.96 7.469-3.29 1.761-.981 3.945-2.732 2.889-4.972-1.198-2.241-3.946-3.642-5.99-4.552z"/>
    </g>
</svg>
