<svg xmlns="http://www.w3.org/2000/svg" width="183" height="44" viewBox="0 0 183 44">
    <g fill="none">
        <path fill="#1591FE" d="M21.627.198c-8.748 0-16.634 5.299-19.98 13.425-3.348 8.126-1.496 17.48 4.69 23.698s15.488 8.078 23.57 4.71c8.08-3.367 13.348-11.298 13.346-20.093V.198H21.627z"/>
        <path fill="#FFF" d="M22.851 13.38c-2.985-3-7.795-3.088-10.886-.199-3.09 2.89-3.355 7.719-.596 10.93 2.758 3.212 7.549 3.654 10.842 1l2.31 2.322c-.334.643-.214 1.429.296 1.941l4.291 4.314c.31.312.73.487 1.168.487.438 0 .858-.175 1.167-.487l.512-.515c.31-.31.485-.733.485-1.174 0-.44-.175-.862-.485-1.173l-4.29-4.31c-.51-.512-1.292-.633-1.931-.298l-2.31-2.321c2.507-3.14 2.26-7.673-.573-10.518zm-9.636 9.698c-1.727-1.737-2.184-4.378-1.142-6.6l1.101 1.082c.433-1.317 1.46-2.35 2.77-2.785l-1.1-1.107c2.66-1.262 5.837-.318 7.389 2.194 1.552 2.512.984 5.795-1.32 7.633-2.304 1.838-5.612 1.647-7.693-.443l-.005.026z"/>
        <g fill="#FFF">
            <path d="M24.78 24.132c-1.542 2.124-3.91 3.472-6.5 3.701-3.878 0-6.501-2.48-6.501-7.66V1.11H0v20.875c0 10.4 6.106 16.803 15.084 16.803 3.56-.034 6.995-1.345 9.696-3.702v2.408h11.817V1.11H24.78v23.022zM61.054 0c-3.588.007-7.055 1.32-9.77 3.701v-2.59H39.507v36.53H51.32V14.805c1.559-2.143 3.957-3.493 6.573-3.702 3.878 0 6.428 2.48 6.428 7.698v18.914h11.817V16.767C76.138 6.367 69.997 0 61.054 0zm36.344.296c-5.06-.273-9.998 1.625-13.612 5.23-3.647 3.64-5.66 8.64-5.566 13.831-.13 5.235 1.859 10.296 5.503 14.003 3.61 3.67 8.57 5.64 13.675 5.428 5.106.21 10.065-1.759 13.675-5.43 3.643-3.706 5.632-8.765 5.503-14 .104-5.203-1.909-10.22-5.564-13.868-3.623-3.615-8.578-5.514-13.65-5.23l.036.036zm0 27.944c-2.224-.009-4.344-.959-5.85-2.621-1.52-1.678-2.299-3.912-2.158-6.187 0-4.549 3.577-8.236 7.99-8.236 4.412 0 7.99 3.687 7.99 8.236.13 2.258-.646 4.473-2.146 6.135-1.489 1.653-3.585 2.607-5.79 2.636l-.036.037zm25.14-2.405c-3.487.201-6.171 3.25-6.028 6.845.141 3.596 3.057 6.41 6.548 6.318 3.49-.09 6.264-3.052 6.231-6.648-.117-3.666-3.087-6.545-6.644-6.441l-.108-.074z" transform="translate(53 3)"/>
        </g>
    </g>
</svg>
