<svg aria-hidden="true" style="position: absolute; width: 0; height: 0; overflow: hidden;" version="1.1" xmlns="http://www.w3.org/2000/svg" xmlns:xlink="http://www.w3.org/1999/xlink">
<defs>
<symbol id="icon-google-plus" viewBox="0 0 32 32">

<path fill="#f44336" style="fill: var(--color1, #f44336)" d="M16.927 16.747c-0.629-0.459-1.58-1.151-1.592-1.416 0-0.377 0.861-1.232 1.553-1.917 1.595-1.583 3.78-3.749 3.78-6.747 0.036-2.234-1.19-4.297-3.169-5.333h3.169c0.368 0 0.667-0.298 0.667-0.667s-0.299-0.667-0.667-0.667h-8.667c-0.577 0.002-1.153 0.055-1.721 0.16 2.655-0.529 5.443 1.84 6.255 5.377v0c0.831 3.583-0.68 6.996-3.367 7.623-0.28 0.065-0.567 0.097-0.855 0.097-2.415 0-4.777-2.267-5.519-5.467-0.817-3.547 0.667-6.923 3.296-7.592-3.871 0.573-6.742 3.888-6.756 7.801 0 4.588 4.292 6.239 7.381 6.591-0.686 1.294-0.662 2.849 0.064 4.121-4.060 0.287-10.112 2.043-10.112 7.288-0.048 1.412 0.492 2.781 1.491 3.781 2.076 2.047 5.72 2.219 7.623 2.219 0.228 0 0.429 0 0.6 0h0.287c0.113 0 11.333-0.199 11.333-7.333 0-4.223-3.053-6.447-5.075-7.92zM12.001 30.667c-3.383 0-7.333-1.396-7.333-5.333s4.568-6.667 8.667-6.667c0.12 0 0.237 0.032 0.34 0.093 0.58 0.344 5.66 3.451 5.66 6.573 0 3.187-3.792 5.333-7.333 5.333z"></path>
<path fill="#f44336" style="fill: var(--color1, #f44336)" d="M26.668 18.667c-0.368 0-0.667-0.299-0.667-0.667v-8c0-0.368 0.299-0.667 0.667-0.667s0.667 0.299 0.667 0.667v8c0 0.368-0.299 0.667-0.667 0.667z"></path>
<path fill="#f44336" style="fill: var(--color1, #f44336)" d="M30.668 14.667h-8c-0.368 0-0.667-0.299-0.667-0.667s0.299-0.667 0.667-0.667h8c0.368 0 0.667 0.299 0.667 0.667s-0.299 0.667-0.667 0.667z"></path>
</symbol>

<symbol id="icon-youtube" viewBox="0 0 32 32">

<path d="M30.366 8.502c-0.346-1.285-1.359-2.298-2.644-2.644-2.348-0.642-11.738-0.642-11.738-0.642s-9.39 0-11.738 0.618c-1.26 0.346-2.298 1.384-2.644 2.669-0.618 2.347-0.618 7.216-0.618 7.216s0 4.893 0.618 7.216c0.346 1.285 1.359 2.298 2.644 2.644 2.372 0.643 11.738 0.643 11.738 0.643s9.39 0 11.738-0.618c1.285-0.346 2.298-1.359 2.644-2.644 0.618-2.348 0.618-7.216 0.618-7.216s0.025-4.893-0.618-7.24zM12.994 20.215v-8.995l7.809 4.497z"></path>
</symbol>

<symbol id="icon-facebook" viewBox="0 0 32 32">

<path d="M18 11v-4c0-1.104 0.896-2 2-2h2v-5h-4c-3.314 0-6 2.686-6 6v5h-4v5h4v16h6v-16h4l2-5h-6z"></path>
</symbol>

<symbol id="icon-instagram" viewBox="0 0 32 32">
<path d="M22 0h-12c-5.522 0-10 4.478-10 10v12c0 5.522 4.478 10 10 10h12c5.522 0 10-4.478 10-10v-12c0-5.522-4.478-10-10-10zM29 22c0 3.86-3.14 7-7 7h-12c-3.86 0-7-3.14-7-7v-12c0-3.86 3.14-7 7-7h12c3.86 0 7 3.14 7 7v12z"></path>
<path d="M16 8c-4.418 0-8 3.582-8 8s3.582 8 8 8 8-3.582 8-8-3.582-8-8-8zM16 21c-2.756 0-5-2.244-5-5 0-2.758 2.244-5 5-5s5 2.242 5 5c0 2.756-2.244 5-5 5z"></path>
<path d="M25.666 7.4c0 0.589-0.477 1.066-1.066 1.066s-1.066-0.477-1.066-1.066c0-0.589 0.477-1.066 1.066-1.066s1.066 0.477 1.066 1.066z"></path>
</symbol>

<symbol id="icon-pinterest" viewBox="0 0 32 32">
<path d="M24.835 3.415c-4.21-4.58-11.313-4.274-16.037-0.741-4.026 3.012-6.871 9.7-3.488 14.251 0.692 0.93 1.705 1.498 2.827 1.728 0.3 0.062 0.54-0.085 0.645-0.366 0.227-0.609 0.469-1.18 0.521-1.832 0.020-0.249-0.18-0.388-0.387-0.399-3.069-3.37-0.984-7.565 2.006-10.159 2.644-2.293 7.499-4.442 10.607-1.8 2.145 1.823 2.308 5.23 2.205 7.804-0.129 3.228-1.257 6.631-4.608 7.658-1.104 0.338-2.38 0.204-3.113-0.768-0.828-1.098-0.562-2.421-0.249-3.631 0.483-1.864 1.627-4.503 0.543-6.346-1.312-2.232-3.955-0.203-4.718 1.301-0.465 0.916-1.302 3.849-0.066 4.601-1.313 3.321-2.199 6.97-2.798 10.473-0.269 1.573-0.517 3.304-0.219 4.891 0.016 0.084 0.355 1.277 0.695 1.744-0.053 0.301 0.391 0.41 0.568 0.173 1.209-1.618 2.447-3.168 3.114-5.099 0.354-1.026 0.486-2.15 0.698-3.211 0.149-0.744 0.453-1.589 0.53-2.382 0.005-0.001 0.009-0.003 0.014-0.003 1.044 0.802 2.448 1.481 3.688 1.722 1.95 0.379 4.249-0.347 5.841-1.448 0.243-0.168 0.487-0.371 0.722-0.597 0.736-0.49 1.407-1.127 1.981-1.929 3.3-4.614 2.179-11.603-1.524-15.633zM8.222 16.819c0.026 0.028 0.054 0.051 0.082 0.072-0.018 0.039-0.037 0.077-0.055 0.116-0.040-0.052-0.081-0.102-0.122-0.153 0.009-0.048 0.008-0.096-0.003-0.145 0.033 0.037 0.063 0.074 0.098 0.11zM6.173 7.678c-0.309 0.536-0.57 1.087-0.786 1.656 0.171-0.613 0.402-1.205 0.688-1.776 0.042 0.018 0.087 0.029 0.134 0.035-0.013 0.028-0.024 0.057-0.036 0.085zM24.935 5.392c-0.049-0.064-0.108-0.114-0.172-0.152-0.014-0.021-0.032-0.035-0.049-0.053-0.021-0.069-0.045-0.135-0.067-0.203 0.187 0.24 0.366 0.487 0.533 0.743-0.079-0.113-0.16-0.224-0.245-0.335z"></path>
</symbol>

<symbol id="icon-twitter" viewBox="0 0 37 32">
<path d="M37.333 4.424c-1.388 0.609-2.868 1.013-4.41 1.209 1.587-0.947 2.798-2.436 3.367-4.23-1.479 0.882-3.113 1.505-4.853 1.853-1.405-1.496-3.407-2.422-5.591-2.422-4.237 0-7.649 3.439-7.649 7.656 0 0.607 0.051 1.19 0.177 1.745-6.363-0.31-11.993-3.36-15.776-8.006-0.66 1.146-1.048 2.457-1.048 3.869 0 2.651 1.365 5 3.4 6.361-1.23-0.023-2.436-0.38-3.458-0.943 0 0.023 0 0.054 0 0.084 0 3.719 2.653 6.809 6.132 7.52-0.623 0.17-1.302 0.252-2.007 0.252-0.49 0-0.985-0.028-1.449-0.131 0.992 3.031 3.806 5.259 7.152 5.332-2.604 2.037-5.91 3.264-9.49 3.264-0.628 0-1.23-0.028-1.832-0.105 3.39 2.186 7.408 3.435 11.741 3.435 14.084 0 21.784-11.667 21.784-21.779 0-0.338-0.012-0.665-0.028-0.989 1.519-1.078 2.795-2.424 3.836-3.974z"></path>
</symbol>

</defs>
</svg>
