<svg width="449" height="283" viewBox="0 0 449 283" fill="none" xmlns="http://www.w3.org/2000/svg">
<path fill-rule="evenodd" clip-rule="evenodd" d="M-4 -7H164V184H-4V-7Z" fill="#4AF6CD"/>
<path d="M56.22 148.36C56.22 145.2 56.68 142.42 57.6 140.02C58.52 137.58 59.9 135.4 61.74 133.48L67.62 138.46C65.34 141.34 64.2 144.36 64.2 147.52C64.2 149.16 64.52 150.42 65.16 151.3C65.76 152.14 66.62 152.56 67.74 152.56C68.54 152.56 69.2 152.34 69.72 151.9C70.24 151.46 70.74 150.72 71.22 149.68C71.7 148.64 72.3 147 73.02 144.76C74.38 140.48 76.1 137.36 78.18 135.4C80.22 133.4 83.06 132.4 86.7 132.4C89.34 132.4 91.68 133.08 93.72 134.44C95.72 135.8 97.28 137.78 98.4 140.38C99.52 142.94 100.08 145.96 100.08 149.44C100.08 156.08 98.06 161.5 94.02 165.7L87.96 160.24C90.68 156.92 92.04 153.46 92.04 149.86C92.04 147.98 91.64 146.52 90.84 145.48C90 144.44 88.9 143.92 87.54 143.92C86.58 143.92 85.8 144.12 85.2 144.52C84.56 144.92 84 145.64 83.52 146.68C83 147.68 82.44 149.16 81.84 151.12C80.36 155.84 78.58 159.16 76.5 161.08C74.42 163 71.8 163.96 68.64 163.96C66.16 163.96 63.98 163.3 62.1 161.98C60.22 160.62 58.78 158.76 57.78 156.4C56.74 154 56.22 151.32 56.22 148.36ZM85.02 94.9553C87.9 94.9553 90.48 95.5953 92.76 96.8753C95.04 98.1153 96.84 99.9953 98.16 102.515C99.44 105.035 100.08 108.115 100.08 111.755C100.08 117.275 98.74 121.455 96.06 124.295C93.34 127.135 89.66 128.555 85.02 128.555H57.3V117.455H84.66C87.18 117.455 89.04 117.015 90.24 116.135C91.4 115.215 91.98 113.755 91.98 111.755C91.98 109.755 91.38 108.315 90.18 107.435C88.98 106.555 87.14 106.115 84.66 106.115H57.3V94.9553H85.02ZM83.64 74.9477V78.0077H99V89.1077H57.3V74.6477C57.3 68.7677 58.36 64.3877 60.48 61.5077C62.6 58.5877 65.86 57.1277 70.26 57.1277C72.9 57.1277 75.1 57.7477 76.86 58.9877C78.62 60.1877 80.2 62.1277 81.6 64.8077L99 54.4277V66.7877L83.64 74.9477ZM76.08 78.0077V74.2877C76.08 70.4477 74.14 68.5277 70.26 68.5277C68.46 68.5277 67.14 69.0677 66.3 70.1477C65.46 71.1877 65.04 72.7677 65.04 74.8877V78.0077H76.08ZM99 51.9006H57.3V26.2806L65.16 27.4206V40.8006H75.18V29.0406H83.04V40.8006H99V51.9006Z" fill="white"/>
<path d="M56.22 260.92C56.22 255.36 57.98 250.58 61.5 246.58L67.2 252.04C66.12 253.56 65.34 254.94 64.86 256.18C64.34 257.38 64.08 258.76 64.08 260.32C64.08 263.32 65.24 265.68 67.56 267.4C69.88 269.08 73.42 269.92 78.18 269.92C81.66 269.92 84.42 269.64 86.46 269.08C88.46 268.52 89.9 267.68 90.78 266.56C91.66 265.4 92.1 263.92 92.1 262.12C92.1 260.32 91.72 258.68 90.96 257.2H82.38V261.94L74.76 263.02V246.46H95.52C96.96 248.62 98.08 251.06 98.88 253.78C99.68 256.5 100.08 259.18 100.08 261.82C100.08 274.86 92.76 281.38 78.12 281.38C73.56 281.38 69.64 280.5 66.36 278.74C63.04 276.94 60.52 274.5 58.8 271.42C57.08 268.34 56.22 264.84 56.22 260.92ZM56.22 223.335C56.22 217.295 58.14 212.595 61.98 209.235C65.82 205.875 71.2 204.195 78.12 204.195C82.64 204.195 86.56 204.955 89.88 206.475C93.16 207.955 95.68 210.135 97.44 213.015C99.2 215.895 100.08 219.335 100.08 223.335C100.08 229.375 98.16 234.075 94.32 237.435C90.48 240.755 85.08 242.415 78.12 242.415C73.6 242.415 69.7 241.675 66.42 240.195C63.14 238.675 60.62 236.495 58.86 233.655C57.1 230.775 56.22 227.335 56.22 223.335ZM64.2 223.335C64.2 225.935 65.28 227.855 67.44 229.095C69.6 230.295 73.16 230.895 78.12 230.895C83.08 230.895 86.66 230.275 88.86 229.035C91.02 227.795 92.1 225.895 92.1 223.335C92.1 220.695 91.02 218.775 88.86 217.575C86.7 216.375 83.12 215.775 78.12 215.775C73.16 215.775 69.6 216.375 67.44 217.575C65.28 218.775 64.2 220.695 64.2 223.335Z" fill="white"/>
<rect x="79" y="194" width="20" height="1" transform="rotate(-90 79 194)" fill="white"/>
</svg>
