<svg aria-hidden="true" style="position: absolute; width: 0; height: 0; overflow: hidden;" version="1.1" xmlns="http://www.w3.org/2000/svg" xmlns:xlink="http://www.w3.org/1999/xlink">
<defs>
<symbol id="icon-chart" viewBox="0 0 32 32">
<title>chart</title>
<path d="M30.525 30.75h-1.371v-19.904c0-0.926-0.754-1.68-1.68-1.68h-3.064c-0.926 0-1.68 0.754-1.68 1.68v19.904h-3.481v-10.886c0-0.926-0.754-1.68-1.68-1.68h-3.064c-0.926 0-1.68 0.754-1.68 1.68v10.886h-3.481v-5.638c0-0.926-0.754-1.68-1.68-1.68h-3.064c-0.926 0-1.68 0.754-1.68 1.68v5.638h-1.445c-0.345 0-0.625 0.28-0.625 0.625s0.28 0.625 0.625 0.625h29.050c0.345 0 0.625-0.28 0.625-0.625s-0.28-0.625-0.625-0.625zM8.094 30.75h-3.924v-5.638c0-0.237 0.193-0.43 0.43-0.43h3.064c0.237 0 0.43 0.193 0.43 0.43v5.638zM17.999 30.75h-3.924v-10.886c0-0.237 0.193-0.43 0.43-0.43h3.064c0.237 0 0.43 0.193 0.43 0.43v10.886zM27.904 30.75h-3.924v-19.904c0-0.237 0.193-0.43 0.43-0.43h3.064c0.237 0 0.43 0.193 0.43 0.43v19.904z"></path>
<path d="M29.153 0.657c0.009-0.171-0.051-0.344-0.181-0.474s-0.304-0.19-0.474-0.181c-0.010-0-0.020-0.002-0.030-0.002h-3.781c-0.345 0-0.625 0.28-0.625 0.625s0.28 0.625 0.625 0.625h2.335l-6.179 6.179-2.33-2.33c-0.117-0.117-0.276-0.183-0.442-0.183s-0.325 0.066-0.442 0.183l-11.236 11.236c-0.244 0.244-0.244 0.64 0 0.884 0.122 0.122 0.282 0.183 0.442 0.183s0.32-0.061 0.442-0.183l10.794-10.794 2.33 2.33c0.244 0.244 0.64 0.244 0.884 0l6.62-6.62v2.113c0 0.345 0.28 0.625 0.625 0.625s0.625-0.28 0.625-0.625v-3.56c0-0.010-0.001-0.020-0.002-0.030z"></path>
<path d="M5.353 18.957c0 0.345-0.28 0.625-0.625 0.625s-0.625-0.28-0.625-0.625c0-0.345 0.28-0.625 0.625-0.625s0.625 0.28 0.625 0.625z"></path>
</symbol>
<symbol id="icon-alarm" viewBox="0 0 50 50">
<title>alarm</title>
<path d="M23.434 3.053c-11.815 0-21.427 9.612-21.427 21.427s9.612 21.427 21.427 21.427 21.427-9.612 21.427-21.427c0-11.815-9.612-21.427-21.427-21.427zM23.434 42.515c-9.945 0-18.035-8.090-18.035-18.035s8.090-18.035 18.035-18.035 18.035 8.091 18.035 18.035-8.090 18.035-18.035 18.035z"></path>
<path d="M31.688 23.406h-6.784v-10.007c0-0.937-0.759-1.696-1.696-1.696s-1.696 0.759-1.696 1.696v11.703c0 0.937 0.759 1.696 1.696 1.696h8.48c0.937 0 1.696-0.759 1.696-1.696s-0.759-1.696-1.696-1.696z"></path>
<path d="M9.074 0c-4.956 0-8.989 4.033-8.989 8.989 0 3.31 1.837 6.353 4.795 7.939l1.604-2.989c-1.854-0.994-3.007-2.892-3.007-4.95 0-3.086 2.511-5.597 5.597-5.597 2.212 0 4.22 1.331 5.116 3.39l3.111-1.353c-1.434-3.298-4.663-5.43-8.227-5.43z"></path>
<path d="M37.737 0c-3.672 0-6.93 2.191-8.301 5.583l3.145 1.271c0.85-2.103 2.874-3.462 5.155-3.462 3.086 0 5.597 2.511 5.597 5.597 0 2.068-1.087 3.901-2.909 4.903l1.636 2.972c2.878-1.584 4.666-4.601 4.666-7.875 0-4.957-4.032-8.989-8.989-8.989z"></path>
</symbol>
<symbol id="icon-book" viewBox="0 0 32 32">
<title>book</title>
<path d="M31.38 6.431c-0.002 0-0.004 0-0.006 0v0h-2.103v-0.72c0.011-0.285-0.173-0.541-0.447-0.62-1.46-0.383-2.963-0.574-4.472-0.571-2.481 0-5.862 0.558-8.361 3.101-2.481-2.568-5.886-3.101-8.361-3.101-1.509-0.004-3.012 0.188-4.472 0.571-0.274 0.080-0.458 0.335-0.447 0.62v0.713h-2.090c-0.343 0-0.62 0.278-0.62 0.62v19.812c0 0.343 0.278 0.62 0.62 0.62 0.107-0 0.211-0.028 0.304-0.081 0.062-0.031 6.265-3.424 14.924-1.241h0.149c0.049 0.006 0.099 0.006 0.149 0 8.684-2.202 14.887 1.185 14.924 1.241 0.192 0.111 0.428 0.111 0.62 0 0.191-0.11 0.309-0.313 0.31-0.533v-19.812c0-0.343-0.278-0.62-0.62-0.62zM1.241 25.87v-18.199h1.482v15.556c-0.004 0.343 0.271 0.623 0.613 0.627 0.034 0 0.067-0.002 0.1-0.007 1.283-0.196 2.579-0.3 3.877-0.31 1.798-0.031 3.589 0.239 5.297 0.8-3.858-0.467-7.772 0.061-11.37 1.532zM7.313 22.304c-1.128 0.003-2.255 0.075-3.374 0.217v-16.319c1.208-0.269 2.441-0.406 3.678-0.409 2.32 0 5.52 0.533 7.741 3.039l0.019 15.451c-1.29-0.844-3.809-1.979-8.064-1.979zM16.617 8.831c2.221-2.481 5.421-3.039 7.741-3.039 1.237 0.004 2.47 0.141 3.678 0.409v16.319c-1.113-0.143-2.234-0.218-3.356-0.223-4.23 0-6.755 1.135-8.064 1.979v-15.445zM30.753 25.87c-3.605-1.475-7.528-2.003-11.394-1.532 1.717-0.563 3.516-0.833 5.322-0.8 1.306 0.007 2.61 0.109 3.902 0.304 0.339 0.051 0.655-0.181 0.706-0.52 0.005-0.033 0.007-0.067 0.007-0.1v-15.55h1.482l-0.025 18.199z"></path>
</symbol>
<symbol id="icon-building" viewBox="0 0 32 32">
<title>building</title>
<path d="M31.463 14.305l-2.703-2.463v-8.168c0-0.52-0.421-0.941-0.941-0.941h-6.507c-0.52 0-0.941 0.421-0.941 0.941v0.523l-3.265-2.975c-0.63-0.574-1.581-0.574-2.21-0l-14.357 13.082c-0.505 0.46-0.672 1.169-0.425 1.806s0.847 1.048 1.53 1.048h2.293v13.108c0 0.52 0.421 0.941 0.941 0.941h7.87c0.52 0 0.941-0.421 0.941-0.941v-7.959h4.625v7.959c0 0.52 0.421 0.941 0.941 0.941h7.869c0.52 0 0.941-0.421 0.941-0.941v-13.108h2.294c0.683 0 1.284-0.412 1.53-1.048s0.080-1.346-0.425-1.806zM27.123 15.277c-0.52 0-0.941 0.421-0.941 0.941v13.108h-5.987v-7.959c0-0.52-0.421-0.941-0.941-0.941h-6.507c-0.52 0-0.941 0.421-0.941 0.941v7.959h-5.987v-13.108c0-0.52-0.421-0.941-0.941-0.941h-2.611l13.735-12.515 4.677 4.262c0.276 0.251 0.673 0.316 1.014 0.165s0.561-0.488 0.561-0.861v-1.713h4.625v7.642c0 0.265 0.111 0.517 0.307 0.696l2.55 2.324h-2.612z"></path>
</symbol>
<symbol id="icon-laptop" viewBox="0 0 32 32">
<title>laptop</title>
<path d="M31.961 28.299l-2.732-7.526c-0.025-0.288-0.129-0.563-0.3-0.796 0.195-0.267 0.3-0.589 0.3-0.919v-15.579c-0.004-0.869-0.709-1.572-1.578-1.572h-23.301c-0.869 0-1.575 0.703-1.578 1.572v15.579c0 0.33 0.105 0.652 0.3 0.919-0.171 0.232-0.275 0.508-0.3 0.796l-2.732 7.526c-0.026 0.071-0.039 0.146-0.039 0.222 0.004 0.867 0.705 1.568 1.572 1.572h28.857c0.867-0.004 1.568-0.705 1.572-1.572-0-0.076-0.013-0.151-0.039-0.222zM4.076 3.479c0.003-0.149 0.125-0.267 0.274-0.267h23.307c0.149 0 0.27 0.119 0.274 0.267v15.579c0 0.151-0.123 0.274-0.274 0.274h-23.307c-0.151 0-0.274-0.123-0.274-0.274v-15.579zM4.037 21.126c0.026-0.071 0.039-0.146 0.039-0.222 0-0.151 0.123-0.274 0.274-0.274h23.307c0.151 0 0.274 0.123 0.274 0.274 0 0.076 0.013 0.151 0.039 0.222l0.9 2.478h-25.733l0.9-2.478zM18.977 28.795h-5.947v-1.832h5.947v1.832zM30.428 28.795h-10.147v-1.956c-0.042-0.68-0.623-1.201-1.304-1.167h-5.947c-0.681-0.033-1.262 0.487-1.304 1.167v1.956h-10.147c-0.119 0-0.224-0.076-0.261-0.189l1.343-3.691h26.685l1.343 3.691c-0.037 0.113-0.142 0.189-0.261 0.189z"></path>
<path d="M25.133 4.666h-18.26c-0.72 0-1.304 0.584-1.304 1.304v10.597c0 0.72 0.584 1.304 1.304 1.304h18.26c0.72 0 1.304-0.584 1.304-1.304v-10.597c0-0.72-0.584-1.304-1.304-1.304zM25.133 16.567h-18.26v-10.597h18.26v10.597z"></path>
</symbol>
<symbol id="icon-process" viewBox="0 0 32 32">
<title>process</title>
<path d="M22.041 20.558h-13.178c-0.14 0-0.274 0.056-0.373 0.154l-6.325 6.325 0.745 0.745 6.171-6.171h12.38c-0.11 0.626-0.454 1.581-1.529 1.581h-5.798v1.054h5.798c2.085 0 2.636-2.069 2.636-3.163 0-0.291-0.236-0.527-0.527-0.527z"></path>
<path d="M28.739 17.022c-0.206-0.206-0.54-0.206-0.745 0l-4.744 4.744 0.745 0.745 4.33-4.33c0.713 0.947 0.569 2.285-0.331 3.057l-6.171 6.171h-10.851c-0.14 0-0.274 0.056-0.373 0.154l-3.69 3.69 0.745 0.745 3.535-3.535h10.851c0.14 0 0.274-0.056 0.373-0.154l6.325-6.325c1.963-1.963 0.858-4.104 0-4.962z"></path>
<path d="M25.731 7.38h-1.894c-0.145-0.484-0.339-0.952-0.579-1.396l1.34-1.34c0.206-0.206 0.206-0.54 0-0.745l-2.237-2.237c-0.206-0.206-0.54-0.206-0.745 0l-1.34 1.34c-0.444-0.241-0.912-0.435-1.396-0.58v-1.894c0-0.291-0.236-0.527-0.527-0.527h-3.163c-0.291 0-0.527 0.236-0.527 0.527v1.894c-0.484 0.144-0.952 0.339-1.396 0.58l-1.34-1.34c-0.206-0.206-0.54-0.206-0.745 0l-2.237 2.237c-0.206 0.206-0.206 0.54 0 0.745l1.341 1.34c-0.241 0.444-0.435 0.912-0.58 1.396h-1.894c-0.291 0-0.527 0.236-0.527 0.527v3.163c0 0.291 0.236 0.527 0.527 0.527h1.894c0.145 0.484 0.339 0.952 0.579 1.396l-1.34 1.34c-0.206 0.206-0.206 0.54 0 0.745l2.237 2.237c0.209 0.198 0.536 0.198 0.745 0l1.34-1.341c0.444 0.241 0.912 0.435 1.396 0.58v1.894c0 0.291 0.236 0.527 0.527 0.527h3.163c0.291 0 0.527-0.236 0.527-0.527v-1.894c0.484-0.145 0.952-0.339 1.396-0.579l1.34 1.34c0.099 0.099 0.233 0.154 0.373 0.154s0.274-0.056 0.373-0.154l2.237-2.237c0.206-0.206 0.206-0.54 0-0.745l-1.34-1.34c0.241-0.444 0.435-0.912 0.58-1.396h1.894c0.291 0 0.527-0.236 0.527-0.527v-3.163c0-0.291-0.236-0.527-0.527-0.527zM25.204 10.542h-1.772c-0.244 0-0.457 0.168-0.513 0.406-0.156 0.655-0.416 1.281-0.77 1.854-0.128 0.208-0.097 0.477 0.076 0.65l1.254 1.254-1.492 1.492-1.253-1.255c-0.173-0.173-0.442-0.204-0.65-0.076-0.573 0.354-1.199 0.614-1.854 0.77-0.238 0.056-0.406 0.268-0.406 0.513v1.772h-2.108v-1.771c-0-0.244-0.168-0.457-0.406-0.513-0.655-0.156-1.281-0.416-1.854-0.77-0.208-0.129-0.477-0.097-0.65 0.076l-1.254 1.255-1.492-1.492 1.254-1.255c0.173-0.173 0.204-0.442 0.076-0.65-0.354-0.573-0.614-1.199-0.77-1.854-0.056-0.238-0.268-0.406-0.513-0.406h-1.772v-2.108h1.772c0.244-0 0.457-0.168 0.513-0.406 0.156-0.655 0.416-1.281 0.77-1.854 0.129-0.208 0.097-0.477-0.076-0.65l-1.254-1.253 1.491-1.491 1.254 1.254c0.173 0.173 0.442 0.204 0.65 0.076 0.573-0.354 1.199-0.614 1.854-0.77 0.238-0.056 0.406-0.268 0.406-0.513v-1.772h2.108v1.772c0 0.245 0.168 0.457 0.406 0.513 0.655 0.155 1.282 0.415 1.854 0.77 0.208 0.128 0.477 0.097 0.65-0.076l1.253-1.254 1.491 1.491-1.254 1.254c-0.173 0.173-0.204 0.442-0.076 0.65 0.354 0.573 0.614 1.199 0.77 1.854 0.056 0.238 0.268 0.406 0.513 0.406h1.772v2.108z"></path>
<path d="M16.77 6.325c-1.747 0-3.163 1.416-3.163 3.163s1.416 3.163 3.163 3.163c1.746-0.002 3.161-1.417 3.163-3.163 0-1.747-1.416-3.163-3.163-3.163zM16.77 11.597c-1.164 0-2.108-0.944-2.108-2.108s0.944-2.108 2.108-2.108c1.164 0 2.108 0.944 2.108 2.108s-0.944 2.108-2.108 2.108z"></path>
</symbol>
<symbol id="icon-image" viewBox="0 0 32 32">
<title>image</title>
<path d="M29.996 4c0.001 0.001 0.003 0.002 0.004 0.004v23.993c-0.001 0.001-0.002 0.003-0.004 0.004h-27.993c-0.001-0.001-0.003-0.002-0.004-0.004v-23.993c0.001-0.001 0.002-0.003 0.004-0.004h27.993zM30 2h-28c-1.1 0-2 0.9-2 2v24c0 1.1 0.9 2 2 2h28c1.1 0 2-0.9 2-2v-24c0-1.1-0.9-2-2-2v0z"></path>
<path d="M26 9c0 1.657-1.343 3-3 3s-3-1.343-3-3 1.343-3 3-3 3 1.343 3 3z"></path>
<path d="M28 26h-24v-4l7-12 8 10h2l7-6z"></path>
</symbol>
<symbol id="icon-equalizer2" viewBox="0 0 32 32">
<title>equalizer2</title>
<path d="M28 14h0.5c0.825 0 1.5-0.675 1.5-1.5v-5c0-0.825-0.675-1.5-1.5-1.5h-0.5v-6h-4v6h-0.5c-0.825 0-1.5 0.675-1.5 1.5v5c0 0.825 0.675 1.5 1.5 1.5h0.5v18h4v-18zM24 8h4v4h-4v-4zM18.5 26c0.825 0 1.5-0.675 1.5-1.5v-5c0-0.825-0.675-1.5-1.5-1.5h-0.5v-18h-4v18h-0.5c-0.825 0-1.5 0.675-1.5 1.5v5c0 0.825 0.675 1.5 1.5 1.5h0.5v6h4v-6h0.5zM14 20h4v4h-4v-4zM8.5 14c0.825 0 1.5-0.675 1.5-1.5v-5c0-0.825-0.675-1.5-1.5-1.5h-0.5v-6h-4v6h-0.5c-0.825 0-1.5 0.675-1.5 1.5v5c0 0.825 0.675 1.5 1.5 1.5h0.5v18h4v-18h0.5zM4 8h4v4h-4v-4z"></path>
</symbol>
<symbol id="icon-radio-checked" viewBox="0 0 32 32">
<title>radio-checked</title>
<path d="M16 0c-8.837 0-16 7.163-16 16s7.163 16 16 16 16-7.163 16-16-7.163-16-16-16zM16 28c-6.627 0-12-5.373-12-12s5.373-12 12-12c6.627 0 12 5.373 12 12s-5.373 12-12 12zM10 16c0-3.314 2.686-6 6-6s6 2.686 6 6c0 3.314-2.686 6-6 6s-6-2.686-6-6z"></path>
</symbol>
</defs>
</svg>
