<!-- Generated by IcoMoon.io -->
<svg version="1.1" xmlns="http://www.w3.org/2000/svg" width="32" height="32" viewBox="0 0 32 32">
<title>alarm</title>
<path d="M23.434 3.053c-11.815 0-21.427 9.612-21.427 21.427s9.612 21.427 21.427 21.427 21.427-9.612 21.427-21.427c0-11.815-9.612-21.427-21.427-21.427zM23.434 42.515c-9.945 0-18.035-8.090-18.035-18.035s8.090-18.035 18.035-18.035 18.035 8.091 18.035 18.035-8.090 18.035-18.035 18.035z"></path>
<path d="M31.688 23.406h-6.784v-10.007c0-0.937-0.759-1.696-1.696-1.696s-1.696 0.759-1.696 1.696v11.703c0 0.937 0.759 1.696 1.696 1.696h8.48c0.937 0 1.696-0.759 1.696-1.696s-0.759-1.696-1.696-1.696z"></path>
<path d="M9.074 0c-4.956 0-8.989 4.033-8.989 8.989 0 3.31 1.837 6.353 4.795 7.939l1.604-2.989c-1.854-0.994-3.007-2.892-3.007-4.95 0-3.086 2.511-5.597 5.597-5.597 2.212 0 4.22 1.331 5.116 3.39l3.111-1.353c-1.434-3.298-4.663-5.43-8.227-5.43z"></path>
<path d="M37.737 0c-3.672 0-6.93 2.191-8.301 5.583l3.145 1.271c0.85-2.103 2.874-3.462 5.155-3.462 3.086 0 5.597 2.511 5.597 5.597 0 2.068-1.087 3.901-2.909 4.903l1.636 2.972c2.878-1.584 4.666-4.601 4.666-7.875 0-4.957-4.032-8.989-8.989-8.989z"></path>
</svg>
