<!-- Generated by IcoMoon.io -->
<svg version="1.1" xmlns="http://www.w3.org/2000/svg" width="32" height="32" viewBox="0 0 32 32">
<title>building</title>
<path d="M31.463 14.305l-2.703-2.463v-8.168c0-0.52-0.421-0.941-0.941-0.941h-6.507c-0.52 0-0.941 0.421-0.941 0.941v0.523l-3.265-2.975c-0.63-0.574-1.581-0.574-2.21-0l-14.357 13.082c-0.505 0.46-0.672 1.169-0.425 1.806s0.847 1.048 1.53 1.048h2.293v13.108c0 0.52 0.421 0.941 0.941 0.941h7.87c0.52 0 0.941-0.421 0.941-0.941v-7.959h4.625v7.959c0 0.52 0.421 0.941 0.941 0.941h7.869c0.52 0 0.941-0.421 0.941-0.941v-13.108h2.294c0.683 0 1.284-0.412 1.53-1.048s0.080-1.346-0.425-1.806zM27.123 15.277c-0.52 0-0.941 0.421-0.941 0.941v13.108h-5.987v-7.959c0-0.52-0.421-0.941-0.941-0.941h-6.507c-0.52 0-0.941 0.421-0.941 0.941v7.959h-5.987v-13.108c0-0.52-0.421-0.941-0.941-0.941h-2.611l13.735-12.515 4.677 4.262c0.276 0.251 0.673 0.316 1.014 0.165s0.561-0.488 0.561-0.861v-1.713h4.625v7.642c0 0.265 0.111 0.517 0.307 0.696l2.55 2.324h-2.612z"></path>
</svg>
