<!-- Generated by IcoMoon.io -->
<svg version="1.1" xmlns="http://www.w3.org/2000/svg" width="32" height="32" viewBox="0 0 32 32">
<title>chart</title>
<path d="M30.525 30.75h-1.371v-19.904c0-0.926-0.754-1.68-1.68-1.68h-3.064c-0.926 0-1.68 0.754-1.68 1.68v19.904h-3.481v-10.886c0-0.926-0.754-1.68-1.68-1.68h-3.064c-0.926 0-1.68 0.754-1.68 1.68v10.886h-3.481v-5.638c0-0.926-0.754-1.68-1.68-1.68h-3.064c-0.926 0-1.68 0.754-1.68 1.68v5.638h-1.445c-0.345 0-0.625 0.28-0.625 0.625s0.28 0.625 0.625 0.625h29.050c0.345 0 0.625-0.28 0.625-0.625s-0.28-0.625-0.625-0.625zM8.094 30.75h-3.924v-5.638c0-0.237 0.193-0.43 0.43-0.43h3.064c0.237 0 0.43 0.193 0.43 0.43v5.638zM17.999 30.75h-3.924v-10.886c0-0.237 0.193-0.43 0.43-0.43h3.064c0.237 0 0.43 0.193 0.43 0.43v10.886zM27.904 30.75h-3.924v-19.904c0-0.237 0.193-0.43 0.43-0.43h3.064c0.237 0 0.43 0.193 0.43 0.43v19.904z"></path>
<path d="M29.153 0.657c0.009-0.171-0.051-0.344-0.181-0.474s-0.304-0.19-0.474-0.181c-0.010-0-0.020-0.002-0.030-0.002h-3.781c-0.345 0-0.625 0.28-0.625 0.625s0.28 0.625 0.625 0.625h2.335l-6.179 6.179-2.33-2.33c-0.117-0.117-0.276-0.183-0.442-0.183s-0.325 0.066-0.442 0.183l-11.236 11.236c-0.244 0.244-0.244 0.64 0 0.884 0.122 0.122 0.282 0.183 0.442 0.183s0.32-0.061 0.442-0.183l10.794-10.794 2.33 2.33c0.244 0.244 0.64 0.244 0.884 0l6.62-6.62v2.113c0 0.345 0.28 0.625 0.625 0.625s0.625-0.28 0.625-0.625v-3.56c0-0.010-0.001-0.020-0.002-0.030z"></path>
<path d="M5.353 18.957c0 0.345-0.28 0.625-0.625 0.625s-0.625-0.28-0.625-0.625c0-0.345 0.28-0.625 0.625-0.625s0.625 0.28 0.625 0.625z"></path>
</svg>
