<!-- Generated by IcoMoon.io -->
<svg version="1.1" xmlns="http://www.w3.org/2000/svg" width="32" height="32" viewBox="0 0 32 32">
<title>laptop</title>
<path d="M31.961 28.299l-2.732-7.526c-0.025-0.288-0.129-0.563-0.3-0.796 0.195-0.267 0.3-0.589 0.3-0.919v-15.579c-0.004-0.869-0.709-1.572-1.578-1.572h-23.301c-0.869 0-1.575 0.703-1.578 1.572v15.579c0 0.33 0.105 0.652 0.3 0.919-0.171 0.232-0.275 0.508-0.3 0.796l-2.732 7.526c-0.026 0.071-0.039 0.146-0.039 0.222 0.004 0.867 0.705 1.568 1.572 1.572h28.857c0.867-0.004 1.568-0.705 1.572-1.572-0-0.076-0.013-0.151-0.039-0.222zM4.076 3.479c0.003-0.149 0.125-0.267 0.274-0.267h23.307c0.149 0 0.27 0.119 0.274 0.267v15.579c0 0.151-0.123 0.274-0.274 0.274h-23.307c-0.151 0-0.274-0.123-0.274-0.274v-15.579zM4.037 21.126c0.026-0.071 0.039-0.146 0.039-0.222 0-0.151 0.123-0.274 0.274-0.274h23.307c0.151 0 0.274 0.123 0.274 0.274 0 0.076 0.013 0.151 0.039 0.222l0.9 2.478h-25.733l0.9-2.478zM18.977 28.795h-5.947v-1.832h5.947v1.832zM30.428 28.795h-10.147v-1.956c-0.042-0.68-0.623-1.201-1.304-1.167h-5.947c-0.681-0.033-1.262 0.487-1.304 1.167v1.956h-10.147c-0.119 0-0.224-0.076-0.261-0.189l1.343-3.691h26.685l1.343 3.691c-0.037 0.113-0.142 0.189-0.261 0.189z"></path>
<path d="M25.133 4.666h-18.26c-0.72 0-1.304 0.584-1.304 1.304v10.597c0 0.72 0.584 1.304 1.304 1.304h18.26c0.72 0 1.304-0.584 1.304-1.304v-10.597c0-0.72-0.584-1.304-1.304-1.304zM25.133 16.567h-18.26v-10.597h18.26v10.597z"></path>
</svg>
