<!-- Generated by IcoMoon.io -->
<svg version="1.1" xmlns="http://www.w3.org/2000/svg" width="32" height="32" viewBox="0 0 32 32">
<title>process</title>
<path d="M22.041 20.558h-13.178c-0.14 0-0.274 0.056-0.373 0.154l-6.325 6.325 0.745 0.745 6.171-6.171h12.38c-0.11 0.626-0.454 1.581-1.529 1.581h-5.798v1.054h5.798c2.085 0 2.636-2.069 2.636-3.163 0-0.291-0.236-0.527-0.527-0.527z"></path>
<path d="M28.739 17.022c-0.206-0.206-0.54-0.206-0.745 0l-4.744 4.744 0.745 0.745 4.33-4.33c0.713 0.947 0.569 2.285-0.331 3.057l-6.171 6.171h-10.851c-0.14 0-0.274 0.056-0.373 0.154l-3.69 3.69 0.745 0.745 3.535-3.535h10.851c0.14 0 0.274-0.056 0.373-0.154l6.325-6.325c1.963-1.963 0.858-4.104 0-4.962z"></path>
<path d="M25.731 7.38h-1.894c-0.145-0.484-0.339-0.952-0.579-1.396l1.34-1.34c0.206-0.206 0.206-0.54 0-0.745l-2.237-2.237c-0.206-0.206-0.54-0.206-0.745 0l-1.34 1.34c-0.444-0.241-0.912-0.435-1.396-0.58v-1.894c0-0.291-0.236-0.527-0.527-0.527h-3.163c-0.291 0-0.527 0.236-0.527 0.527v1.894c-0.484 0.144-0.952 0.339-1.396 0.58l-1.34-1.34c-0.206-0.206-0.54-0.206-0.745 0l-2.237 2.237c-0.206 0.206-0.206 0.54 0 0.745l1.341 1.34c-0.241 0.444-0.435 0.912-0.58 1.396h-1.894c-0.291 0-0.527 0.236-0.527 0.527v3.163c0 0.291 0.236 0.527 0.527 0.527h1.894c0.145 0.484 0.339 0.952 0.579 1.396l-1.34 1.34c-0.206 0.206-0.206 0.54 0 0.745l2.237 2.237c0.209 0.198 0.536 0.198 0.745 0l1.34-1.341c0.444 0.241 0.912 0.435 1.396 0.58v1.894c0 0.291 0.236 0.527 0.527 0.527h3.163c0.291 0 0.527-0.236 0.527-0.527v-1.894c0.484-0.145 0.952-0.339 1.396-0.579l1.34 1.34c0.099 0.099 0.233 0.154 0.373 0.154s0.274-0.056 0.373-0.154l2.237-2.237c0.206-0.206 0.206-0.54 0-0.745l-1.34-1.34c0.241-0.444 0.435-0.912 0.58-1.396h1.894c0.291 0 0.527-0.236 0.527-0.527v-3.163c0-0.291-0.236-0.527-0.527-0.527zM25.204 10.542h-1.772c-0.244 0-0.457 0.168-0.513 0.406-0.156 0.655-0.416 1.281-0.77 1.854-0.128 0.208-0.097 0.477 0.076 0.65l1.254 1.254-1.492 1.492-1.253-1.255c-0.173-0.173-0.442-0.204-0.65-0.076-0.573 0.354-1.199 0.614-1.854 0.77-0.238 0.056-0.406 0.268-0.406 0.513v1.772h-2.108v-1.771c-0-0.244-0.168-0.457-0.406-0.513-0.655-0.156-1.281-0.416-1.854-0.77-0.208-0.129-0.477-0.097-0.65 0.076l-1.254 1.255-1.492-1.492 1.254-1.255c0.173-0.173 0.204-0.442 0.076-0.65-0.354-0.573-0.614-1.199-0.77-1.854-0.056-0.238-0.268-0.406-0.513-0.406h-1.772v-2.108h1.772c0.244-0 0.457-0.168 0.513-0.406 0.156-0.655 0.416-1.281 0.77-1.854 0.129-0.208 0.097-0.477-0.076-0.65l-1.254-1.253 1.491-1.491 1.254 1.254c0.173 0.173 0.442 0.204 0.65 0.076 0.573-0.354 1.199-0.614 1.854-0.77 0.238-0.056 0.406-0.268 0.406-0.513v-1.772h2.108v1.772c0 0.245 0.168 0.457 0.406 0.513 0.655 0.155 1.282 0.415 1.854 0.77 0.208 0.128 0.477 0.097 0.65-0.076l1.253-1.254 1.491 1.491-1.254 1.254c-0.173 0.173-0.204 0.442-0.076 0.65 0.354 0.573 0.614 1.199 0.77 1.854 0.056 0.238 0.268 0.406 0.513 0.406h1.772v2.108z"></path>
<path d="M16.77 6.325c-1.747 0-3.163 1.416-3.163 3.163s1.416 3.163 3.163 3.163c1.746-0.002 3.161-1.417 3.163-3.163 0-1.747-1.416-3.163-3.163-3.163zM16.77 11.597c-1.164 0-2.108-0.944-2.108-2.108s0.944-2.108 2.108-2.108c1.164 0 2.108 0.944 2.108 2.108s-0.944 2.108-2.108 2.108z"></path>
</svg>
