<svg xmlns="http://www.w3.org/2000/svg" xmlns:xlink="http://www.w3.org/1999/xlink" width="101" height="121" viewBox="0 0 101 121">
    <defs>
        <path id="prefix__a" d="M0.987 0.891L44.246 0.891 44.246 66.432 0.987 66.432z"/>
    </defs>
    <g fill="none" fill-rule="evenodd">
        <path fill="#1E1E1E" d="M46.243 101.145h.606c-.122.061-.247.104-.382.104l-.224-.104zm.224-10.525c.135 0 .26.045.382.105h-.656l.274-.105zM79.33 72.166c-.93-1.46-2.605-2.279-4.335-2.28l-8.598-.006v5.185c0 2.923-2.39 5.315-5.315 5.315-2.923 0-5.315-2.392-5.315-5.315v-5.19l-10.929-.004c-2.417 0-4.375 1.96-4.375 4.374v16.48h-6.318c-2.877 0-5.209 2.332-5.209 5.21 0 2.877 2.332 5.21 5.21 5.21h6.317v13.674c0 2.5 1.44 4.85 3.761 5.778.921.37 1.888.675 2.9.91 7.924 1.843 16.39-1.598 20.753-8.464 1.377-2.166 2.266-4.457 2.725-6.769.22-.784.373-1.593.373-2.442v-8.958c2.047-.634 3.997-1.696 5.694-3.225 5.603-5.054 6.583-13.323 2.661-19.483zM35.772 39.12h-.605c.12-.061.247-.104.382-.104l.223.105zm-.223 10.525c-.135 0-.261-.045-.382-.105h.656l-.274.105zM2.687 68.1c.93 1.46 2.604 2.278 4.335 2.28 2.054 0 5.155.003 8.598.005V65.2c0-2.923 2.39-5.314 5.315-5.314 2.923 0 5.315 2.39 5.315 5.314v5.19l10.929.005c2.417 0 4.375-1.96 4.375-4.375V49.54h6.317c2.877 0 5.21-2.332 5.21-5.21 0-2.877-2.333-5.21-5.21-5.21h-6.317V25.448c0-2.501-1.44-4.85-3.761-5.78-.921-.367-1.89-.674-2.901-.91-7.923-1.842-16.388 1.599-20.752 8.465-1.377 2.166-2.267 4.458-2.726 6.77-.22.783-.372 1.592-.372 2.442v8.958c-2.048.633-3.997 1.696-5.694 3.225C-.256 53.67-1.235 61.94 2.687 68.1z" transform="translate(0 -1)"/>
        <g transform="translate(0 -1) translate(56)">
            <mask id="prefix__b" fill="#fff">
                <use xlink:href="#prefix__a"/>
            </mask>
            <path fill="#1E1E1E" d="M12.956 1.891c-1.529 0-3.055.174-4.533.518-1.047.244-2.072.565-3.046.957-2.625 1.05-4.39 3.745-4.39 6.706v12.406h7.884c3.503 0 6.353 2.85 6.353 6.352 0 3.502-2.85 6.352-6.353 6.352H.987v15.464c0 2.963 2.412 5.374 5.375 5.374l10.035-.004v4.206c0 3.424 2.786 6.21 6.21 6.21 3.425 0 6.21-2.786 6.21-6.21V56.01h2.09l5.613-.005c2.118-.002 4.102-1.05 5.178-2.742 4.268-6.702 3.074-15.434-2.836-20.763-1.565-1.412-3.367-2.487-5.36-3.203V21.06c0-.839-.128-1.689-.4-2.674-.5-2.5-1.462-4.88-2.856-7.075-3.694-5.81-10.319-9.419-17.29-9.419m0 1c6.532 0 12.867 3.327 16.445 8.955 1.377 2.167 2.268 4.458 2.727 6.771.22.784.373 1.592.373 2.442v8.958c2.047.634 3.996 1.695 5.692 3.226 5.605 5.052 6.583 13.322 2.661 19.482-.929 1.461-2.603 2.277-4.335 2.28l-8.596.005-.106-.002v5.214c0 2.877-2.332 5.21-5.21 5.21s-5.21-2.333-5.21-5.21v-5.214h-.105v.008l-10.93.004c-2.416 0-4.375-1.959-4.375-4.374V36.182h6.884c4.062 0 7.353-3.29 7.353-7.352 0-4.06-3.29-7.352-7.353-7.352H1.987V10.072c0-2.5 1.44-4.85 3.762-5.779.921-.369 1.89-.674 2.9-.91 1.428-.332 2.871-.492 4.307-.492" mask="url(#prefix__b)"/>
        </g>
        <path fill="#1E1E1E" d="M20.816 59.7c-3.31 0-6.002 2.694-6.002 6.004v4.005l-3.536.002-3.82.003c-2.047.002-3.965 1.017-5.005 2.65-4.108 6.452-2.96 14.858 2.729 19.987 1.5 1.353 3.225 2.384 5.136 3.074v7.88c0 .808.12 1.627.384 2.577.483 2.408 1.407 4.697 2.747 6.805 3.554 5.59 9.928 9.063 16.635 9.063 1.47 0 2.937-.168 4.36-.5 1.005-.233 1.99-.542 2.93-.92 2.536-1.013 4.24-3.615 4.24-6.476V99.726H34.838l-.061.03-.035-.018-.26-.012h-.39c-2.205 0-4.001-1.796-4.001-4.003 0-2.206 1.796-4.001 4.002-4.001h.624l.092-.045.117.045H41.615V74.898c0-2.867-2.334-5.2-5.201-5.2l-9.595.004v-3.998c0-3.31-2.692-6.003-6.003-6.003m0 1c2.763 0 5.003 2.24 5.003 5.003v5.006h.1v-.007l10.495-.005c2.32 0 4.2 1.88 4.2 4.2v15.824h-5.503l-.262-.101c-.131 0-.252.043-.368.1h-.39c-2.761 0-5.001 2.24-5.001 5.002 0 2.764 2.24 5.003 5.002 5.003h.39c.117.058.236.1.367.1l.213-.1h5.553v13.128c0 2.402-1.383 4.658-3.613 5.549-.883.355-1.813.649-2.784.874-1.371.319-2.756.473-4.134.473-6.272 0-12.356-3.195-15.791-8.6-1.323-2.08-2.176-4.28-2.618-6.5-.21-.752-.357-1.528-.357-2.345v-8.6c-1.966-.608-3.838-1.628-5.467-3.097C.47 86.757-.47 78.816 3.296 72.9c.893-1.401 2.5-2.185 4.163-2.187l8.253-.006.102.002v-5.006c0-2.763 2.239-5.003 5.002-5.003" transform="translate(0 -1)"/>
    </g>
</svg>
