<svg xmlns="http://www.w3.org/2000/svg" width="60" height="28" viewBox="0 0 60 28">
    <g fill="#1F1F1F">
        <path d="M53.774 20.291l3.622-4.42c1.698-1.928 2.378-3.855 2.378-6.235 0-2.948-1.359-4.988-2.491-6.235C55.245 1.36 52.075 0 48 0c-3.85 0-7.585 1.36-9.736 3.74-1.472 1.588-2.49 4.195-2.604 7.03h9.736c.113-.68.227-1.361.566-1.701.227-.34.793-.907 1.812-.907.566 0 1.132.113 1.584.567.453.453.68.907.68 1.473 0 1.474-.793 2.721-1.585 3.741L36.906 28H60v-7.709h-6.226zM34 0L23.156 0 22.93 0 0 28 8.924 28 11.07 28 34 28 34 20.165 17.508 20.165z"/>
    </g>
</svg>
