<svg xmlns="http://www.w3.org/2000/svg" width="130" height="148" viewBox="0 0 130 148">
    <path fill="#1F1F1F" d="M125.691 36.674H130v-1h-19.962v-15.23c.002-.095.015-.188.015-.284h-.015v-1.67h-1v1.955c-.154 8.414-7.035 15.215-15.485 15.215h-56c-8.547 0-15.5-6.953-15.5-15.5h-.02V0h-1v35.674H0v1h5.553c8.415 0 15.27 6.86 15.48 15.226v46.78c-.195 7.753-6.097 14.104-13.66 14.994H0v1h21.033l.02 15.58h1c0-8.546 6.953-15.5 15.5-15.5h56c8.45 0 15.33 6.8 15.485 15.215v18.009h1v-17.724h.015c0-.096-.013-.19-.015-.285v-15.295H130v-1h-4.309c-8.546 0-15.5-6.953-15.5-15.5v-46c0-8.547 6.954-15.5 15.5-15.5zM109.038 25.8v9.874h-9.924c4.598-1.654 8.247-5.286 9.924-9.874zM22.033 51.9V36.674h33.22l-33.063 77h-.157V98.68c.003-.131.02-.259.02-.39v-46c0-.132-.017-.26-.02-.391zm21.102 61.774l5.185-13.12h33.797l5.079 13.12h-44.06zm11.32-28.736l10.93-27.885 10.709 27.885H54.455zm54.583 28.736h-.115l-32.294-77h32.41v77zM22.033 25.707c1.661 4.631 5.329 8.302 9.958 9.967h-9.958v-9.967zM10.836 36.674h10.197v9.961c-1.714-4.673-5.472-8.358-10.197-9.961zm.636 77c4.425-1.71 7.925-5.267 9.561-9.728v9.728h-9.56zm10.561 11.033v-10.033H32.17c-4.714 1.634-8.454 5.342-10.137 10.033zm87.005-.094c-1.699-4.647-5.42-8.316-10.103-9.94h10.103v9.94zm11.052-10.94h-10.052V103.36c1.591 4.79 5.32 8.599 10.052 10.315zM110.038 46.99V36.674h10.052c-4.732 1.716-8.46 5.526-10.052 10.315z"/>
</svg>
