<svg xmlns="http://www.w3.org/2000/svg" width="138" height="108" viewBox="0 0 138 108">
    <path fill="#1F1F1F" d="M137.727 97.46H130V33.63c0-7.274-5.862-13.17-13.093-13.17h-3.988V0h-18v13h-17v7.46H21.094C13.862 20.46 8 26.355 8 33.63v63.83H.274c-.15 0-.274.127-.274.286v2.11c0 4.2 3.25 7.603 7.259 7.603h123.484c4.008 0 7.257-3.404 7.257-7.604v-2.109c0-.159-.122-.287-.273-.287zM95.92 1h16v68h-16V1zM9 33.63c0-6.711 5.425-12.17 12.094-12.17H77.92V28h-17v10h-17v32h69V21.46h3.988c6.668 0 12.093 5.459 12.093 12.17v63.83H9V33.63zM61.92 38v-9h16v40h-16V38zm-1 1v30h-16V39h16z"/>
</svg>
