<svg xmlns="http://www.w3.org/2000/svg" width="132" height="106" viewBox="0 0 132 106">
    <path fill="#1F1F1F" fill-rule="evenodd" d="M124.963 61c3.88 0 7.037-3.364 7.037-7.5s-3.157-7.5-7.037-7.5H114v-8h10.963c3.88 0 7.037-3.364 7.037-7.5s-3.157-7.5-7.037-7.5h-23.925c-3.722 0-6.771 3.098-7.014 7h-9.048c-.243-3.902-3.291-7-7.013-7H54.039c-3.723 0-6.772 3.098-7.015 7h-9.048c-.243-3.902-3.291-7-7.013-7H20v-8h10.963C34.843 15 38 11.636 38 7.5S34.843 0 30.963 0H7.039C3.158 0 0 3.364 0 7.5S3.158 15 7.039 15H19v8H7.039C3.158 23 0 26.364 0 30.5S3.158 38 7.039 38H19v8H7.039C3.158 46 0 49.364 0 53.5S3.158 61 7.039 61h23.924C34.843 61 38 57.636 38 53.5S34.843 46 30.963 46H20v-8h10.963c3.722 0 6.77-3.098 7.013-7h9.048c.243 3.902 3.292 7 7.015 7H65v8H54.039C50.158 46 47 49.364 47 53.5s3.158 7.5 7.039 7.5H65v8H54.039C50.158 69 47 72.364 47 76.5s3.158 7.5 7.039 7.5H65v7H54.039C50.158 91 47 94.364 47 98.5s3.158 7.5 7.039 7.5h23.924c3.88 0 7.037-3.364 7.037-7.5S81.843 91 77.963 91H66v-7h11.963C81.843 84 85 80.636 85 76.5S81.843 69 77.963 69H66v-8h11.963C81.843 61 85 57.636 85 53.5S81.843 46 77.963 46H66v-8h11.963c3.722 0 6.77-3.098 7.013-7h9.048c.243 3.902 3.292 7 7.014 7H113v8h-11.962C97.158 46 94 49.364 94 53.5s3.157 7.5 7.038 7.5H113v8h-11.962C97.158 69 94 72.364 94 76.5s3.157 7.5 7.038 7.5h23.925c3.88 0 7.037-3.364 7.037-7.5s-3.157-7.5-7.037-7.5H114v-8h10.963zm-94-14C34.292 47 37 49.916 37 53.5S34.292 60 30.963 60H7.039C3.709 60 1 57.084 1 53.5S3.709 47 7.039 47h23.924zm47 45C81.292 92 84 94.916 84 98.5s-2.708 6.5-6.037 6.5H54.039c-3.33 0-6.039-2.916-6.039-6.5s2.709-6.5 6.039-6.5h23.924zm0-22C81.292 70 84 72.916 84 76.5S81.292 83 77.963 83H54.039C50.709 83 48 80.084 48 76.5s2.709-6.5 6.039-6.5h23.924zm0-23C81.292 47 84 49.916 84 53.5S81.292 60 77.963 60H54.039C50.709 60 48 57.084 48 53.5s2.709-6.5 6.039-6.5h23.924zm47 23c3.329 0 6.037 2.916 6.037 6.5s-2.708 6.5-6.037 6.5h-23.925C97.71 83 95 80.084 95 76.5s2.709-6.5 6.038-6.5h23.925zM95 53.5c0-3.584 2.709-6.5 6.038-6.5h23.925c3.329 0 6.037 2.916 6.037 6.5s-2.708 6.5-6.037 6.5h-23.925C97.71 60 95 57.084 95 53.5z"/>
</svg>
