<svg xmlns="http://www.w3.org/2000/svg" width="122" height="106" viewBox="0 0 122 106">
    <path fill="#1E1F1E" d="M121.355 45.659c-.22-.161-.534-.116-.7.107-.268.366-27.215 36.57-59.876 36.57-4.089 0-8.085-.572-11.948-1.561l6.272-6.272c1.836.364 3.734.559 5.676.559 16.016 0 29-12.984 29-29 0-1.943-.194-3.84-.559-5.676l13.014-13.014c4.06 3.345 7.514 6.671 10.205 9.471.191.2.507.207.707.014.199-.191.205-.508.013-.707-2.696-2.806-6.154-6.135-10.216-9.487l7.966-7.966c4.272-4.272 4.272-11.222 0-15.493-4.271-4.272-11.221-4.272-15.493 0l-11.27 11.27c-7.18-3.397-15.082-5.686-23.367-5.686C27.62 8.788.37 45.396.097 45.766c-.163.223-.115.535.107.7.09.065.193.096.296.096.153 0 .305-.07.403-.204.269-.366 27.216-36.57 59.876-36.57 7.997 0 15.644 2.18 22.616 5.437l-6.638 6.638c-4.582-3.031-10.072-4.801-15.978-4.801-16.016 0-29 12.984-29 29 0 5.905 1.77 11.396 4.801 15.978l-8.92 8.92C19.675 65.644 13.09 59.465 8.61 54.747c-.189-.202-.507-.206-.707-.018-.2.19-.208.507-.017.707 4.489 4.726 11.068 10.902 19.055 16.243l-4.483 4.483-.01-.01-.016.036-.827.827.294.294-8.533 17.944-.002-.001-4.988 10.492 10.491-4.99-.008-.007 17.945-8.533.294.294.827-.827.035-.016-.01-.01 10.06-10.06c4.117 1.102 8.39 1.741 12.77 1.741 33.16 0 60.41-36.608 60.682-36.978.163-.223.115-.535-.107-.7zm-70.65-18.201c2.762 0 5 2.238 5 5 0 2.761-2.238 5-5 5-2.761 0-5-2.239-5-5 0-2.762 2.239-5 5-5zM94.924 5.11l14.079 14.079-6.838 6.838c-4.925-3.99-10.694-7.966-17.063-11.095l9.822-9.822zM84.358 15.675c6.378 3.096 12.16 7.07 17.096 11.063L88.962 39.23c-1.662-6.881-5.777-12.801-11.37-16.79l6.766-6.765zm-47.2 47.2c3.988 5.593 9.908 9.708 16.79 11.37l-6.231 6.23c-6.94-1.934-13.426-5.198-19.206-8.953l8.647-8.647zM18.11 99.997l-3.993-3.993L22.65 78.06l13.404 13.404-17.944 8.533zm19.135-9.049L23.164 76.87l4.625-4.624c5.75 3.755 12.206 7.037 19.12 9.038l-9.665 9.665z"/>
</svg>
