<!-- Generated by IcoMoon.io -->
<svg version="1.1" xmlns="http://www.w3.org/2000/svg" width="32" height="32" viewBox="0 0 32 32">
<title>google-plus</title>
<path fill="#f44336" d="M16.927 16.747c-0.629-0.459-1.58-1.151-1.592-1.416 0-0.377 0.861-1.232 1.553-1.917 1.595-1.583 3.78-3.749 3.78-6.747 0.036-2.234-1.19-4.297-3.169-5.333h3.169c0.368 0 0.667-0.298 0.667-0.667s-0.299-0.667-0.667-0.667h-8.667c-0.577 0.002-1.153 0.055-1.721 0.16 2.655-0.529 5.443 1.84 6.255 5.377v0c0.831 3.583-0.68 6.996-3.367 7.623-0.28 0.065-0.567 0.097-0.855 0.097-2.415 0-4.777-2.267-5.519-5.467-0.817-3.547 0.667-6.923 3.296-7.592-3.871 0.573-6.742 3.888-6.756 7.801 0 4.588 4.292 6.239 7.381 6.591-0.686 1.294-0.662 2.849 0.064 4.121-4.060 0.287-10.112 2.043-10.112 7.288-0.048 1.412 0.492 2.781 1.491 3.781 2.076 2.047 5.72 2.219 7.623 2.219 0.228 0 0.429 0 0.6 0h0.287c0.113 0 11.333-0.199 11.333-7.333 0-4.223-3.053-6.447-5.075-7.92zM12.001 30.667c-3.383 0-7.333-1.396-7.333-5.333s4.568-6.667 8.667-6.667c0.12 0 0.237 0.032 0.34 0.093 0.58 0.344 5.66 3.451 5.66 6.573 0 3.187-3.792 5.333-7.333 5.333z"></path>
<path fill="#f44336" d="M26.668 18.667c-0.368 0-0.667-0.299-0.667-0.667v-8c0-0.368 0.299-0.667 0.667-0.667s0.667 0.299 0.667 0.667v8c0 0.368-0.299 0.667-0.667 0.667z"></path>
<path fill="#f44336" d="M30.668 14.667h-8c-0.368 0-0.667-0.299-0.667-0.667s0.299-0.667 0.667-0.667h8c0.368 0 0.667 0.299 0.667 0.667s-0.299 0.667-0.667 0.667z"></path>
</svg>
