<!-- Generated by IcoMoon.io -->
<svg version="1.1" xmlns="http://www.w3.org/2000/svg" width="32" height="32" viewBox="0 0 32 32">
<title>pinterest</title>
<path d="M24.835 3.415c-4.21-4.58-11.313-4.274-16.037-0.741-4.026 3.012-6.871 9.7-3.488 14.251 0.692 0.93 1.705 1.498 2.827 1.728 0.3 0.062 0.54-0.085 0.645-0.366 0.227-0.609 0.469-1.18 0.521-1.832 0.020-0.249-0.18-0.388-0.387-0.399-3.069-3.37-0.984-7.565 2.006-10.159 2.644-2.293 7.499-4.442 10.607-1.8 2.145 1.823 2.308 5.23 2.205 7.804-0.129 3.228-1.257 6.631-4.608 7.658-1.104 0.338-2.38 0.204-3.113-0.768-0.828-1.098-0.562-2.421-0.249-3.631 0.483-1.864 1.627-4.503 0.543-6.346-1.312-2.232-3.955-0.203-4.718 1.301-0.465 0.916-1.302 3.849-0.066 4.601-1.313 3.321-2.199 6.97-2.798 10.473-0.269 1.573-0.517 3.304-0.219 4.891 0.016 0.084 0.355 1.277 0.695 1.744-0.053 0.301 0.391 0.41 0.568 0.173 1.209-1.618 2.447-3.168 3.114-5.099 0.354-1.026 0.486-2.15 0.698-3.211 0.149-0.744 0.453-1.589 0.53-2.382 0.005-0.001 0.009-0.003 0.014-0.003 1.044 0.802 2.448 1.481 3.688 1.722 1.95 0.379 4.249-0.347 5.841-1.448 0.243-0.168 0.487-0.371 0.722-0.597 0.736-0.49 1.407-1.127 1.981-1.929 3.3-4.614 2.179-11.603-1.524-15.633zM8.222 16.819c0.026 0.028 0.054 0.051 0.082 0.072-0.018 0.039-0.037 0.077-0.055 0.116-0.040-0.052-0.081-0.102-0.122-0.153 0.009-0.048 0.008-0.096-0.003-0.145 0.033 0.037 0.063 0.074 0.098 0.11zM6.173 7.678c-0.309 0.536-0.57 1.087-0.786 1.656 0.171-0.613 0.402-1.205 0.688-1.776 0.042 0.018 0.087 0.029 0.134 0.035-0.013 0.028-0.024 0.057-0.036 0.085zM24.935 5.392c-0.049-0.064-0.108-0.114-0.172-0.152-0.014-0.021-0.032-0.035-0.049-0.053-0.021-0.069-0.045-0.135-0.067-0.203 0.187 0.24 0.366 0.487 0.533 0.743-0.079-0.113-0.16-0.224-0.245-0.335z"></path>
</svg>
