<!-- Generated by IcoMoon.io -->
<svg version="1.1" xmlns="http://www.w3.org/2000/svg" width="37" height="32" viewBox="0 0 37 32">
<title>twitter</title>
<path d="M37.333 4.424c-1.388 0.609-2.868 1.013-4.41 1.209 1.587-0.947 2.798-2.436 3.367-4.23-1.479 0.882-3.113 1.505-4.853 1.853-1.405-1.496-3.407-2.422-5.591-2.422-4.237 0-7.649 3.439-7.649 7.656 0 0.607 0.051 1.19 0.177 1.745-6.363-0.31-11.993-3.36-15.776-8.006-0.66 1.146-1.048 2.457-1.048 3.869 0 2.651 1.365 5 3.4 6.361-1.23-0.023-2.436-0.38-3.458-0.943 0 0.023 0 0.054 0 0.084 0 3.719 2.653 6.809 6.132 7.52-0.623 0.17-1.302 0.252-2.007 0.252-0.49 0-0.985-0.028-1.449-0.131 0.992 3.031 3.806 5.259 7.152 5.332-2.604 2.037-5.91 3.264-9.49 3.264-0.628 0-1.23-0.028-1.832-0.105 3.39 2.186 7.408 3.435 11.741 3.435 14.084 0 21.784-11.667 21.784-21.779 0-0.338-0.012-0.665-0.028-0.989 1.519-1.078 2.795-2.424 3.836-3.974z"></path>
</svg>
